<svg width="206" height="64" viewBox="0 0 206 64" fill="none" xmlns="http://www.w3.org/2000/svg">
<path d="M2.39714 4.7976C1.07321 4.7976 -3.91006e-05 3.72362 -3.91006e-05 2.3988C-3.91006e-05 1.07398 1.07321 0 2.39714 0C3.72106 0 4.79431 1.07398 4.79431 2.3988C4.79431 3.72362 3.72106 4.7976 2.39714 4.7976Z" fill="#FBA5A4"/>
<path d="M2.39714 16.6477C1.07321 16.6477 -3.91006e-05 15.5737 -3.91006e-05 14.2489C-3.91006e-05 12.9241 1.07321 11.8501 2.39714 11.8501C3.72106 11.8501 4.79431 12.9241 4.79431 14.2489C4.79431 15.5737 3.72106 16.6477 2.39714 16.6477Z" fill="#FBA5A4"/>
<path d="M2.39714 28.4978C1.07321 28.4978 -3.91006e-05 27.4238 -3.91006e-05 26.099C-3.91006e-05 24.7742 1.07321 23.7002 2.39714 23.7002C3.72106 23.7002 4.79431 24.7742 4.79431 26.099C4.79431 27.4238 3.72106 28.4978 2.39714 28.4978Z" fill="#FBA5A4"/>
<path d="M2.39714 40.2998C1.07321 40.2998 -3.91006e-05 39.2258 -3.91006e-05 37.901C-3.91006e-05 36.5762 1.07321 35.5022 2.39714 35.5022C3.72106 35.5022 4.79431 36.5762 4.79431 37.901C4.79431 39.2258 3.72106 40.2998 2.39714 40.2998Z" fill="#FBA5A4"/>
<path d="M2.39714 52.1499C1.07321 52.1499 -3.91006e-05 51.0759 -3.91006e-05 49.7511C-3.91006e-05 48.4263 1.07321 47.3523 2.39714 47.3523C3.72106 47.3523 4.79431 48.4263 4.79431 49.7511C4.79431 51.0759 3.72106 52.1499 2.39714 52.1499Z" fill="#FBA5A4"/>
<path d="M2.39714 64C1.07321 64 -3.91006e-05 62.926 -3.91006e-05 61.6012C-3.91006e-05 60.2764 1.07321 59.2024 2.39714 59.2024C3.72106 59.2024 4.79431 60.2764 4.79431 61.6012C4.79431 62.926 3.72106 64 2.39714 64Z" fill="#FBA5A4"/>
<path d="M14.1912 4.7976C12.8673 4.7976 11.794 3.72362 11.794 2.3988C11.794 1.07398 12.8673 0 14.1912 0C15.5151 0 16.5884 1.07398 16.5884 2.3988C16.5884 3.72362 15.5151 4.7976 14.1912 4.7976Z" fill="#FBA5A4"/>
<path d="M14.1912 16.6477C12.8673 16.6477 11.794 15.5737 11.794 14.2489C11.794 12.9241 12.8673 11.8501 14.1912 11.8501C15.5151 11.8501 16.5884 12.9241 16.5884 14.2489C16.5884 15.5737 15.5151 16.6477 14.1912 16.6477Z" fill="#FBA5A4"/>
<path d="M14.1912 28.4978C12.8673 28.4978 11.794 27.4238 11.794 26.099C11.794 24.7742 12.8673 23.7002 14.1912 23.7002C15.5151 23.7002 16.5884 24.7742 16.5884 26.099C16.5884 27.4238 15.5151 28.4978 14.1912 28.4978Z" fill="#FBA5A4"/>
<path d="M14.1912 40.2998C12.8673 40.2998 11.794 39.2258 11.794 37.901C11.794 36.5762 12.8673 35.5022 14.1912 35.5022C15.5151 35.5022 16.5884 36.5762 16.5884 37.901C16.5884 39.2258 15.5151 40.2998 14.1912 40.2998Z" fill="#FBA5A4"/>
<path d="M14.1912 52.1499C12.8673 52.1499 11.794 51.0759 11.794 49.7511C11.794 48.4263 12.8673 47.3523 14.1912 47.3523C15.5151 47.3523 16.5884 48.4263 16.5884 49.7511C16.5884 51.0759 15.5151 52.1499 14.1912 52.1499Z" fill="#FBA5A4"/>
<path d="M14.1912 64C12.8673 64 11.794 62.926 11.794 61.6012C11.794 60.2764 12.8673 59.2024 14.1912 59.2024C15.5151 59.2024 16.5884 60.2764 16.5884 61.6012C16.5884 62.926 15.5151 64 14.1912 64Z" fill="#FBA5A4"/>
<path d="M26.0332 4.7976C24.7093 4.7976 23.6361 3.72362 23.6361 2.3988C23.6361 1.07398 24.7093 0 26.0332 0C27.3572 0 28.4304 1.07398 28.4304 2.3988C28.4304 3.72362 27.3572 4.7976 26.0332 4.7976Z" fill="#FBA5A4"/>
<path d="M26.0332 16.6477C24.7093 16.6477 23.6361 15.5737 23.6361 14.2489C23.6361 12.9241 24.7093 11.8501 26.0332 11.8501C27.3572 11.8501 28.4304 12.9241 28.4304 14.2489C28.4304 15.5737 27.3572 16.6477 26.0332 16.6477Z" fill="#FBA5A4"/>
<path d="M26.0332 28.4978C24.7093 28.4978 23.6361 27.4238 23.6361 26.099C23.6361 24.7742 24.7093 23.7002 26.0332 23.7002C27.3572 23.7002 28.4304 24.7742 28.4304 26.099C28.4304 27.4238 27.3572 28.4978 26.0332 28.4978Z" fill="#FBA5A4"/>
<path d="M26.0332 40.2998C24.7093 40.2998 23.6361 39.2258 23.6361 37.901C23.6361 36.5762 24.7093 35.5022 26.0332 35.5022C27.3572 35.5022 28.4304 36.5762 28.4304 37.901C28.4304 39.2258 27.3572 40.2998 26.0332 40.2998Z" fill="#FBA5A4"/>
<path d="M26.0332 52.1499C24.7093 52.1499 23.6361 51.0759 23.6361 49.7511C23.6361 48.4263 24.7093 47.3523 26.0332 47.3523C27.3572 47.3523 28.4304 48.4263 28.4304 49.7511C28.4304 51.0759 27.3572 52.1499 26.0332 52.1499Z" fill="#FBA5A4"/>
<path d="M26.0332 64C24.7093 64 23.6361 62.926 23.6361 61.6012C23.6361 60.2764 24.7093 59.2024 26.0332 59.2024C27.3572 59.2024 28.4304 60.2764 28.4304 61.6012C28.4304 62.926 27.3572 64 26.0332 64Z" fill="#FBA5A4"/>
<path d="M37.8753 4.7976C36.5514 4.7976 35.4781 3.72362 35.4781 2.3988C35.4781 1.07398 36.5514 0 37.8753 0C39.1992 0 40.2725 1.07398 40.2725 2.3988C40.2725 3.72362 39.1992 4.7976 37.8753 4.7976Z" fill="#FBA5A4"/>
<path d="M37.8753 16.6477C36.5514 16.6477 35.4781 15.5737 35.4781 14.2489C35.4781 12.9241 36.5514 11.8501 37.8753 11.8501C39.1992 11.8501 40.2725 12.9241 40.2725 14.2489C40.2725 15.5737 39.1992 16.6477 37.8753 16.6477Z" fill="#FBA5A4"/>
<path d="M37.8753 28.4978C36.5514 28.4978 35.4781 27.4238 35.4781 26.099C35.4781 24.7742 36.5514 23.7002 37.8753 23.7002C39.1992 23.7002 40.2725 24.7742 40.2725 26.099C40.2725 27.4238 39.1992 28.4978 37.8753 28.4978Z" fill="#FBA5A4"/>
<path d="M37.8753 40.2998C36.5514 40.2998 35.4781 39.2258 35.4781 37.901C35.4781 36.5762 36.5514 35.5022 37.8753 35.5022C39.1992 35.5022 40.2725 36.5762 40.2725 37.901C40.2725 39.2258 39.1992 40.2998 37.8753 40.2998Z" fill="#FBA5A4"/>
<path d="M37.8753 52.1499C36.5514 52.1499 35.4781 51.0759 35.4781 49.7511C35.4781 48.4263 36.5514 47.3523 37.8753 47.3523C39.1992 47.3523 40.2725 48.4263 40.2725 49.7511C40.2725 51.0759 39.1992 52.1499 37.8753 52.1499Z" fill="#FBA5A4"/>
<path d="M37.8753 64C36.5514 64 35.4781 62.926 35.4781 61.6012C35.4781 60.2764 36.5514 59.2024 37.8753 59.2024C39.1992 59.2024 40.2725 60.2764 40.2725 61.6012C40.2725 62.926 39.1992 64 37.8753 64Z" fill="#FBA5A4"/>
<path d="M49.6695 4.7976C48.3456 4.7976 47.2723 3.72362 47.2723 2.3988C47.2723 1.07398 48.3456 0 49.6695 0C50.9934 0 52.0667 1.07398 52.0667 2.3988C52.0667 3.72362 50.9934 4.7976 49.6695 4.7976Z" fill="#FBA5A4"/>
<path d="M49.6695 16.6477C48.3456 16.6477 47.2723 15.5737 47.2723 14.2489C47.2723 12.9241 48.3456 11.8501 49.6695 11.8501C50.9934 11.8501 52.0667 12.9241 52.0667 14.2489C52.0667 15.5737 50.9934 16.6477 49.6695 16.6477Z" fill="#FBA5A4"/>
<path d="M49.6695 28.4978C48.3456 28.4978 47.2723 27.4238 47.2723 26.099C47.2723 24.7742 48.3456 23.7002 49.6695 23.7002C50.9934 23.7002 52.0667 24.7742 52.0667 26.099C52.0667 27.4238 50.9934 28.4978 49.6695 28.4978Z" fill="#FBA5A4"/>
<path d="M49.6695 40.2998C48.3456 40.2998 47.2723 39.2258 47.2723 37.901C47.2723 36.5762 48.3456 35.5022 49.6695 35.5022C50.9934 35.5022 52.0667 36.5762 52.0667 37.901C52.0667 39.2258 50.9934 40.2998 49.6695 40.2998Z" fill="#FBA5A4"/>
<path d="M49.6695 52.1499C48.3456 52.1499 47.2723 51.0759 47.2723 49.7511C47.2723 48.4263 48.3456 47.3523 49.6695 47.3523C50.9934 47.3523 52.0667 48.4263 52.0667 49.7511C52.0667 51.0759 50.9934 52.1499 49.6695 52.1499Z" fill="#FBA5A4"/>
<path d="M49.6695 64C48.3456 64 47.2723 62.926 47.2723 61.6012C47.2723 60.2764 48.3456 59.2024 49.6695 59.2024C50.9934 59.2024 52.0667 60.2764 52.0667 61.6012C52.0667 62.926 50.9934 64 49.6695 64Z" fill="#FBA5A4"/>
<path d="M61.5115 4.7976C60.1876 4.7976 59.1143 3.72362 59.1143 2.3988C59.1143 1.07398 60.1876 0 61.5115 0C62.8354 0 63.9087 1.07398 63.9087 2.3988C63.9087 3.72362 62.8354 4.7976 61.5115 4.7976Z" fill="#FBA5A4"/>
<path d="M61.5115 16.6477C60.1876 16.6477 59.1143 15.5737 59.1143 14.2489C59.1143 12.9241 60.1876 11.8501 61.5115 11.8501C62.8354 11.8501 63.9087 12.9241 63.9087 14.2489C63.9087 15.5737 62.8354 16.6477 61.5115 16.6477Z" fill="#FBA5A4"/>
<path d="M61.5115 28.4978C60.1876 28.4978 59.1143 27.4238 59.1143 26.099C59.1143 24.7742 60.1876 23.7002 61.5115 23.7002C62.8354 23.7002 63.9087 24.7742 63.9087 26.099C63.9087 27.4238 62.8354 28.4978 61.5115 28.4978Z" fill="#FBA5A4"/>
<path d="M61.5115 40.2998C60.1876 40.2998 59.1143 39.2258 59.1143 37.901C59.1143 36.5762 60.1876 35.5022 61.5115 35.5022C62.8354 35.5022 63.9087 36.5762 63.9087 37.901C63.9087 39.2258 62.8354 40.2998 61.5115 40.2998Z" fill="#FBA5A4"/>
<path d="M61.5115 52.1499C60.1876 52.1499 59.1143 51.0759 59.1143 49.7511C59.1143 48.4263 60.1876 47.3523 61.5115 47.3523C62.8354 47.3523 63.9087 48.4263 63.9087 49.7511C63.9087 51.0759 62.8354 52.1499 61.5115 52.1499Z" fill="#FBA5A4"/>
<path d="M61.5115 64C60.1876 64 59.1143 62.926 59.1143 61.6012C59.1143 60.2764 60.1876 59.2024 61.5115 59.2024C62.8354 59.2024 63.9087 60.2764 63.9087 61.6012C63.9087 62.926 62.8354 64 61.5115 64Z" fill="#FBA5A4"/>
<path d="M73.3534 4.7976C72.0295 4.7976 70.9563 3.72362 70.9563 2.3988C70.9563 1.07398 72.0295 0 73.3534 0C74.6774 0 75.7506 1.07398 75.7506 2.3988C75.7506 3.72362 74.6774 4.7976 73.3534 4.7976Z" fill="#FBA5A4"/>
<path d="M73.3534 16.6477C72.0295 16.6477 70.9563 15.5737 70.9563 14.2489C70.9563 12.9241 72.0295 11.8501 73.3534 11.8501C74.6774 11.8501 75.7506 12.9241 75.7506 14.2489C75.7506 15.5737 74.6774 16.6477 73.3534 16.6477Z" fill="#FBA5A4"/>
<path d="M73.3534 28.4978C72.0295 28.4978 70.9563 27.4238 70.9563 26.099C70.9563 24.7742 72.0295 23.7002 73.3534 23.7002C74.6774 23.7002 75.7506 24.7742 75.7506 26.099C75.7506 27.4238 74.6774 28.4978 73.3534 28.4978Z" fill="#FBA5A4"/>
<path d="M73.3534 40.2998C72.0295 40.2998 70.9563 39.2258 70.9563 37.901C70.9563 36.5762 72.0295 35.5022 73.3534 35.5022C74.6774 35.5022 75.7506 36.5762 75.7506 37.901C75.7506 39.2258 74.6774 40.2998 73.3534 40.2998Z" fill="#FBA5A4"/>
<path d="M73.3534 52.1499C72.0295 52.1499 70.9563 51.0759 70.9563 49.7511C70.9563 48.4263 72.0295 47.3523 73.3534 47.3523C74.6774 47.3523 75.7506 48.4263 75.7506 49.7511C75.7506 51.0759 74.6774 52.1499 73.3534 52.1499Z" fill="#FBA5A4"/>
<path d="M73.3534 64C72.0295 64 70.9563 62.926 70.9563 61.6012C70.9563 60.2764 72.0295 59.2024 73.3534 59.2024C74.6774 59.2024 75.7506 60.2764 75.7506 61.6012C75.7506 62.926 74.6774 64 73.3534 64Z" fill="#FBA5A4"/>
<path d="M85.1477 4.7976C83.8238 4.7976 82.7506 3.72362 82.7506 2.3988C82.7506 1.07398 83.8238 0 85.1477 0C86.4717 0 87.5449 1.07398 87.5449 2.3988C87.5449 3.72362 86.4717 4.7976 85.1477 4.7976Z" fill="#FBA5A4"/>
<path d="M85.1477 16.6477C83.8238 16.6477 82.7506 15.5737 82.7506 14.2489C82.7506 12.9241 83.8238 11.8501 85.1477 11.8501C86.4717 11.8501 87.5449 12.9241 87.5449 14.2489C87.5449 15.5737 86.4717 16.6477 85.1477 16.6477Z" fill="#FBA5A4"/>
<path d="M85.1477 28.4978C83.8238 28.4978 82.7506 27.4238 82.7506 26.099C82.7506 24.7742 83.8238 23.7002 85.1477 23.7002C86.4717 23.7002 87.5449 24.7742 87.5449 26.099C87.5449 27.4238 86.4717 28.4978 85.1477 28.4978Z" fill="#FBA5A4"/>
<path d="M85.1477 40.2998C83.8238 40.2998 82.7506 39.2258 82.7506 37.901C82.7506 36.5762 83.8238 35.5022 85.1477 35.5022C86.4717 35.5022 87.5449 36.5762 87.5449 37.901C87.5449 39.2258 86.4717 40.2998 85.1477 40.2998Z" fill="#FBA5A4"/>
<path d="M85.1477 52.1499C83.8238 52.1499 82.7506 51.0759 82.7506 49.7511C82.7506 48.4263 83.8238 47.3523 85.1477 47.3523C86.4717 47.3523 87.5449 48.4263 87.5449 49.7511C87.5449 51.0759 86.4717 52.1499 85.1477 52.1499Z" fill="#FBA5A4"/>
<path d="M85.1477 64C83.8238 64 82.7506 62.926 82.7506 61.6012C82.7506 60.2764 83.8238 59.2024 85.1477 59.2024C86.4717 59.2024 87.5449 60.2764 87.5449 61.6012C87.5449 62.926 86.4717 64 85.1477 64Z" fill="#FBA5A4"/>
<path d="M96.9897 4.7976C95.6657 4.7976 94.5925 3.72362 94.5925 2.3988C94.5925 1.07398 95.6657 0 96.9897 0C98.3136 0 99.3868 1.07398 99.3868 2.3988C99.3868 3.72362 98.3136 4.7976 96.9897 4.7976Z" fill="#FBA5A4"/>
<path d="M96.9897 16.6477C95.6657 16.6477 94.5925 15.5737 94.5925 14.2489C94.5925 12.9241 95.6657 11.8501 96.9897 11.8501C98.3136 11.8501 99.3868 12.9241 99.3868 14.2489C99.3868 15.5737 98.3136 16.6477 96.9897 16.6477Z" fill="#FBA5A4"/>
<path d="M96.9897 28.4978C95.6657 28.4978 94.5925 27.4238 94.5925 26.099C94.5925 24.7742 95.6657 23.7002 96.9897 23.7002C98.3136 23.7002 99.3868 24.7742 99.3868 26.099C99.3868 27.4238 98.3136 28.4978 96.9897 28.4978Z" fill="#FBA5A4"/>
<path d="M96.9897 40.2998C95.6657 40.2998 94.5925 39.2258 94.5925 37.901C94.5925 36.5762 95.6657 35.5022 96.9897 35.5022C98.3136 35.5022 99.3868 36.5762 99.3868 37.901C99.3868 39.2258 98.3136 40.2998 96.9897 40.2998Z" fill="#FBA5A4"/>
<path d="M96.9897 52.1499C95.6657 52.1499 94.5925 51.0759 94.5925 49.7511C94.5925 48.4263 95.6657 47.3523 96.9897 47.3523C98.3136 47.3523 99.3868 48.4263 99.3868 49.7511C99.3868 51.0759 98.3136 52.1499 96.9897 52.1499Z" fill="#FBA5A4"/>
<path d="M96.9897 64C95.6657 64 94.5925 62.926 94.5925 61.6012C94.5925 60.2764 95.6657 59.2024 96.9897 59.2024C98.3136 59.2024 99.3868 60.2764 99.3868 61.6012C99.3868 62.926 98.3136 64 96.9897 64Z" fill="#FBA5A4"/>
<path d="M108.832 4.7976C107.508 4.7976 106.435 3.72362 106.435 2.3988C106.435 1.07398 107.508 0 108.832 0C110.156 0 111.229 1.07398 111.229 2.3988C111.229 3.72362 110.156 4.7976 108.832 4.7976Z" fill="#FBA5A4"/>
<path d="M108.832 16.6477C107.508 16.6477 106.435 15.5737 106.435 14.2489C106.435 12.9241 107.508 11.8501 108.832 11.8501C110.156 11.8501 111.229 12.9241 111.229 14.2489C111.229 15.5737 110.156 16.6477 108.832 16.6477Z" fill="#FBA5A4"/>
<path d="M108.832 28.4978C107.508 28.4978 106.435 27.4238 106.435 26.099C106.435 24.7742 107.508 23.7002 108.832 23.7002C110.156 23.7002 111.229 24.7742 111.229 26.099C111.229 27.4238 110.156 28.4978 108.832 28.4978Z" fill="#FBA5A4"/>
<path d="M108.832 40.2998C107.508 40.2998 106.435 39.2258 106.435 37.901C106.435 36.5762 107.508 35.5022 108.832 35.5022C110.156 35.5022 111.229 36.5762 111.229 37.901C111.229 39.2258 110.156 40.2998 108.832 40.2998Z" fill="#FBA5A4"/>
<path d="M108.832 52.1499C107.508 52.1499 106.435 51.0759 106.435 49.7511C106.435 48.4263 107.508 47.3523 108.832 47.3523C110.156 47.3523 111.229 48.4263 111.229 49.7511C111.229 51.0759 110.156 52.1499 108.832 52.1499Z" fill="#FBA5A4"/>
<path d="M108.832 64C107.508 64 106.435 62.926 106.435 61.6012C106.435 60.2764 107.508 59.2024 108.832 59.2024C110.156 59.2024 111.229 60.2764 111.229 61.6012C111.229 62.926 110.156 64 108.832 64Z" fill="#FBA5A4"/>
<path d="M120.626 4.7976C119.302 4.7976 118.228 3.72362 118.228 2.3988C118.228 1.07398 119.302 0 120.626 0C121.95 0 123.023 1.07398 123.023 2.3988C123.023 3.72362 121.95 4.7976 120.626 4.7976Z" fill="#FBA5A4"/>
<path d="M120.626 16.6477C119.302 16.6477 118.228 15.5737 118.228 14.2489C118.228 12.9241 119.302 11.8501 120.626 11.8501C121.95 11.8501 123.023 12.9241 123.023 14.2489C123.023 15.5737 121.95 16.6477 120.626 16.6477Z" fill="#FBA5A4"/>
<path d="M120.626 28.4978C119.302 28.4978 118.228 27.4238 118.228 26.099C118.228 24.7742 119.302 23.7002 120.626 23.7002C121.95 23.7002 123.023 24.7742 123.023 26.099C123.023 27.4238 121.95 28.4978 120.626 28.4978Z" fill="#FBA5A4"/>
<path d="M120.626 40.2998C119.302 40.2998 118.228 39.2258 118.228 37.901C118.228 36.5762 119.302 35.5022 120.626 35.5022C121.95 35.5022 123.023 36.5762 123.023 37.901C123.023 39.2258 121.95 40.2998 120.626 40.2998Z" fill="#FBA5A4"/>
<path d="M120.626 52.1499C119.302 52.1499 118.228 51.0759 118.228 49.7511C118.228 48.4263 119.302 47.3523 120.626 47.3523C121.95 47.3523 123.023 48.4263 123.023 49.7511C123.023 51.0759 121.95 52.1499 120.626 52.1499Z" fill="#FBA5A4"/>
<path d="M120.626 64C119.302 64 118.228 62.926 118.228 61.6012C118.228 60.2764 119.302 59.2024 120.626 59.2024C121.95 59.2024 123.023 60.2764 123.023 61.6012C123.023 62.926 121.95 64 120.626 64Z" fill="#FBA5A4"/>
<path d="M132.468 4.7976C131.144 4.7976 130.071 3.72362 130.071 2.3988C130.071 1.07398 131.144 0 132.468 0C133.792 0 134.865 1.07398 134.865 2.3988C134.865 3.72362 133.792 4.7976 132.468 4.7976Z" fill="#FBA5A4"/>
<path d="M132.468 16.6477C131.144 16.6477 130.071 15.5737 130.071 14.2489C130.071 12.9241 131.144 11.8501 132.468 11.8501C133.792 11.8501 134.865 12.9241 134.865 14.2489C134.865 15.5737 133.792 16.6477 132.468 16.6477Z" fill="#FBA5A4"/>
<path d="M132.468 28.4978C131.144 28.4978 130.071 27.4238 130.071 26.099C130.071 24.7742 131.144 23.7002 132.468 23.7002C133.792 23.7002 134.865 24.7742 134.865 26.099C134.865 27.4238 133.792 28.4978 132.468 28.4978Z" fill="#FBA5A4"/>
<path d="M132.468 40.2998C131.144 40.2998 130.071 39.2258 130.071 37.901C130.071 36.5762 131.144 35.5022 132.468 35.5022C133.792 35.5022 134.865 36.5762 134.865 37.901C134.865 39.2258 133.792 40.2998 132.468 40.2998Z" fill="#FBA5A4"/>
<path d="M132.468 52.1499C131.144 52.1499 130.071 51.0759 130.071 49.7511C130.071 48.4263 131.144 47.3523 132.468 47.3523C133.792 47.3523 134.865 48.4263 134.865 49.7511C134.865 51.0759 133.792 52.1499 132.468 52.1499Z" fill="#FBA5A4"/>
<path d="M132.468 64C131.144 64 130.071 62.926 130.071 61.6012C130.071 60.2764 131.144 59.2024 132.468 59.2024C133.792 59.2024 134.865 60.2764 134.865 61.6012C134.865 62.926 133.792 64 132.468 64Z" fill="#FBA5A4"/>
<path d="M144.31 4.7976C142.986 4.7976 141.913 3.72362 141.913 2.3988C141.913 1.07398 142.986 0 144.31 0C145.634 0 146.707 1.07398 146.707 2.3988C146.707 3.72362 145.634 4.7976 144.31 4.7976Z" fill="#FBA5A4"/>
<path d="M144.31 16.6477C142.986 16.6477 141.913 15.5737 141.913 14.2489C141.913 12.9241 142.986 11.8501 144.31 11.8501C145.634 11.8501 146.707 12.9241 146.707 14.2489C146.707 15.5737 145.634 16.6477 144.31 16.6477Z" fill="#FBA5A4"/>
<path d="M144.31 28.4978C142.986 28.4978 141.913 27.4238 141.913 26.099C141.913 24.7742 142.986 23.7002 144.31 23.7002C145.634 23.7002 146.707 24.7742 146.707 26.099C146.707 27.4238 145.634 28.4978 144.31 28.4978Z" fill="#FBA5A4"/>
<path d="M144.31 40.2998C142.986 40.2998 141.913 39.2258 141.913 37.901C141.913 36.5762 142.986 35.5022 144.31 35.5022C145.634 35.5022 146.707 36.5762 146.707 37.901C146.707 39.2258 145.634 40.2998 144.31 40.2998Z" fill="#FBA5A4"/>
<path d="M144.31 52.1499C142.986 52.1499 141.913 51.0759 141.913 49.7511C141.913 48.4263 142.986 47.3523 144.31 47.3523C145.634 47.3523 146.707 48.4263 146.707 49.7511C146.707 51.0759 145.634 52.1499 144.31 52.1499Z" fill="#FBA5A4"/>
<path d="M144.31 64C142.986 64 141.913 62.926 141.913 61.6012C141.913 60.2764 142.986 59.2024 144.31 59.2024C145.634 59.2024 146.707 60.2764 146.707 61.6012C146.707 62.926 145.634 64 144.31 64Z" fill="#FBA5A4"/>
<path d="M156.104 4.7976C154.78 4.7976 153.707 3.72362 153.707 2.3988C153.707 1.07398 154.78 0 156.104 0C157.428 0 158.501 1.07398 158.501 2.3988C158.501 3.72362 157.428 4.7976 156.104 4.7976Z" fill="#FBA5A4"/>
<path d="M156.104 16.6477C154.78 16.6477 153.707 15.5737 153.707 14.2489C153.707 12.9241 154.78 11.8501 156.104 11.8501C157.428 11.8501 158.501 12.9241 158.501 14.2489C158.501 15.5737 157.428 16.6477 156.104 16.6477Z" fill="#FBA5A4"/>
<path d="M156.104 28.4978C154.78 28.4978 153.707 27.4238 153.707 26.099C153.707 24.7742 154.78 23.7002 156.104 23.7002C157.428 23.7002 158.501 24.7742 158.501 26.099C158.501 27.4238 157.428 28.4978 156.104 28.4978Z" fill="#FBA5A4"/>
<path d="M156.104 40.2998C154.78 40.2998 153.707 39.2258 153.707 37.901C153.707 36.5762 154.78 35.5022 156.104 35.5022C157.428 35.5022 158.501 36.5762 158.501 37.901C158.501 39.2258 157.428 40.2998 156.104 40.2998Z" fill="#FBA5A4"/>
<path d="M156.104 52.1499C154.78 52.1499 153.707 51.0759 153.707 49.7511C153.707 48.4263 154.78 47.3523 156.104 47.3523C157.428 47.3523 158.501 48.4263 158.501 49.7511C158.501 51.0759 157.428 52.1499 156.104 52.1499Z" fill="#FBA5A4"/>
<path d="M156.104 64C154.78 64 153.707 62.926 153.707 61.6012C153.707 60.2764 154.78 59.2024 156.104 59.2024C157.428 59.2024 158.501 60.2764 158.501 61.6012C158.501 62.926 157.428 64 156.104 64Z" fill="#FBA5A4"/>
<path d="M167.946 4.7976C166.622 4.7976 165.549 3.72362 165.549 2.3988C165.549 1.07398 166.622 0 167.946 0C169.27 0 170.343 1.07398 170.343 2.3988C170.343 3.72362 169.27 4.7976 167.946 4.7976Z" fill="#FBA5A4"/>
<path d="M167.946 16.6477C166.622 16.6477 165.549 15.5737 165.549 14.2489C165.549 12.9241 166.622 11.8501 167.946 11.8501C169.27 11.8501 170.343 12.9241 170.343 14.2489C170.343 15.5737 169.27 16.6477 167.946 16.6477Z" fill="#FBA5A4"/>
<path d="M167.946 28.4978C166.622 28.4978 165.549 27.4238 165.549 26.099C165.549 24.7742 166.622 23.7002 167.946 23.7002C169.27 23.7002 170.343 24.7742 170.343 26.099C170.343 27.4238 169.27 28.4978 167.946 28.4978Z" fill="#FBA5A4"/>
<path d="M167.946 40.2998C166.622 40.2998 165.549 39.2258 165.549 37.901C165.549 36.5762 166.622 35.5022 167.946 35.5022C169.27 35.5022 170.343 36.5762 170.343 37.901C170.343 39.2258 169.27 40.2998 167.946 40.2998Z" fill="#FBA5A4"/>
<path d="M167.946 52.1499C166.622 52.1499 165.549 51.0759 165.549 49.7511C165.549 48.4263 166.622 47.3523 167.946 47.3523C169.27 47.3523 170.343 48.4263 170.343 49.7511C170.343 51.0759 169.27 52.1499 167.946 52.1499Z" fill="#FBA5A4"/>
<path d="M167.946 64C166.622 64 165.549 62.926 165.549 61.6012C165.549 60.2764 166.622 59.2024 167.946 59.2024C169.27 59.2024 170.343 60.2764 170.343 61.6012C170.343 62.926 169.27 64 167.946 64Z" fill="#FBA5A4"/>
<path d="M179.788 4.7976C178.464 4.7976 177.391 3.72362 177.391 2.3988C177.391 1.07398 178.464 0 179.788 0C181.112 0 182.185 1.07398 182.185 2.3988C182.185 3.72362 181.112 4.7976 179.788 4.7976Z" fill="#FBA5A4"/>
<path d="M179.788 16.6477C178.464 16.6477 177.391 15.5737 177.391 14.2489C177.391 12.9241 178.464 11.8501 179.788 11.8501C181.112 11.8501 182.185 12.9241 182.185 14.2489C182.185 15.5737 181.112 16.6477 179.788 16.6477Z" fill="#FBA5A4"/>
<path d="M179.788 28.4978C178.464 28.4978 177.391 27.4238 177.391 26.099C177.391 24.7742 178.464 23.7002 179.788 23.7002C181.112 23.7002 182.185 24.7742 182.185 26.099C182.185 27.4238 181.112 28.4978 179.788 28.4978Z" fill="#FBA5A4"/>
<path d="M179.788 40.2998C178.464 40.2998 177.391 39.2258 177.391 37.901C177.391 36.5762 178.464 35.5022 179.788 35.5022C181.112 35.5022 182.185 36.5762 182.185 37.901C182.185 39.2258 181.112 40.2998 179.788 40.2998Z" fill="#FBA5A4"/>
<path d="M179.788 52.1499C178.464 52.1499 177.391 51.0759 177.391 49.7511C177.391 48.4263 178.464 47.3523 179.788 47.3523C181.112 47.3523 182.185 48.4263 182.185 49.7511C182.185 51.0759 181.112 52.1499 179.788 52.1499Z" fill="#FBA5A4"/>
<path d="M179.788 64C178.464 64 177.391 62.926 177.391 61.6012C177.391 60.2764 178.464 59.2024 179.788 59.2024C181.112 59.2024 182.185 60.2764 182.185 61.6012C182.185 62.926 181.112 64 179.788 64Z" fill="#FBA5A4"/>
<path d="M191.582 16.6477C190.258 16.6477 189.185 15.5737 189.185 14.2489C189.185 12.9241 190.258 11.8501 191.582 11.8501C192.906 11.8501 193.979 12.9241 193.979 14.2489C193.979 15.5737 192.906 16.6477 191.582 16.6477Z" fill="#FBA5A4"/>
<path d="M191.582 28.4978C190.258 28.4978 189.185 27.4238 189.185 26.099C189.185 24.7742 190.258 23.7002 191.582 23.7002C192.906 23.7002 193.979 24.7742 193.979 26.099C193.979 27.4238 192.906 28.4978 191.582 28.4978Z" fill="#FBA5A4"/>
<path d="M191.582 40.2998C190.258 40.2998 189.185 39.2258 189.185 37.901C189.185 36.5762 190.258 35.5022 191.582 35.5022C192.906 35.5022 193.979 36.5762 193.979 37.901C193.979 39.2258 192.906 40.2998 191.582 40.2998Z" fill="#FBA5A4"/>
<path d="M191.582 52.1499C190.258 52.1499 189.185 51.0759 189.185 49.7511C189.185 48.4263 190.258 47.3523 191.582 47.3523C192.906 47.3523 193.979 48.4263 193.979 49.7511C193.979 51.0759 192.906 52.1499 191.582 52.1499Z" fill="#FBA5A4"/>
<path d="M203.424 28.4978C202.1 28.4978 201.027 27.4238 201.027 26.099C201.027 24.7742 202.1 23.7002 203.424 23.7002C204.748 23.7002 205.821 24.7742 205.821 26.099C205.821 27.4238 204.748 28.4978 203.424 28.4978Z" fill="#FBA5A4"/>
<path d="M203.424 40.2998C202.1 40.2998 201.027 39.2258 201.027 37.901C201.027 36.5762 202.1 35.5022 203.424 35.5022C204.748 35.5022 205.821 36.5762 205.821 37.901C205.821 39.2258 204.748 40.2998 203.424 40.2998Z" fill="#FBA5A4"/>
</svg>
