<svg width="274" height="124" viewBox="0 0 274 124" fill="none" xmlns="http://www.w3.org/2000/svg">
<path d="M257.525 9.29535C260.09 9.29535 262.169 7.21452 262.169 4.64768C262.169 2.08084 260.09 0 257.525 0C254.96 0 252.88 2.08084 252.88 4.64768C252.88 7.21452 254.96 9.29535 257.525 9.29535Z" fill="#2865E9"/>
<path d="M257.525 32.2549C260.09 32.2549 262.169 30.1741 262.169 27.6073C262.169 25.0404 260.09 22.9596 257.525 22.9596C254.96 22.9596 252.88 25.0404 252.88 27.6073C252.88 30.1741 254.96 32.2549 257.525 32.2549Z" fill="#2865E9"/>
<path d="M257.525 55.2144C260.09 55.2144 262.169 53.1336 262.169 50.5667C262.169 47.9999 260.09 45.9191 257.525 45.9191C254.96 45.9191 252.88 47.9999 252.88 50.5667C252.88 53.1336 254.96 55.2144 257.525 55.2144Z" fill="#2865E9"/>
<path d="M257.525 78.081C260.09 78.081 262.169 76.0002 262.169 73.4333C262.169 70.8665 260.09 68.7856 257.525 68.7856C254.96 68.7856 252.88 70.8665 252.88 73.4333C252.88 76.0002 254.96 78.081 257.525 78.081Z" fill="#2865E9"/>
<path d="M257.525 101.04C260.09 101.04 262.169 98.9596 262.169 96.3928C262.169 93.826 260.09 91.7451 257.525 91.7451C254.96 91.7451 252.88 93.826 252.88 96.3928C252.88 98.9596 254.96 101.04 257.525 101.04Z" fill="#2865E9"/>
<path d="M257.525 124C260.09 124 262.169 121.919 262.169 119.352C262.169 116.785 260.09 114.705 257.525 114.705C254.96 114.705 252.88 116.785 252.88 119.352C252.88 121.919 254.96 124 257.525 124Z" fill="#2865E9"/>
<path d="M234.674 9.29535C237.239 9.29535 239.318 7.21452 239.318 4.64768C239.318 2.08084 237.239 0 234.674 0C232.108 0 230.029 2.08084 230.029 4.64768C230.029 7.21452 232.108 9.29535 234.674 9.29535Z" fill="#2865E9"/>
<path d="M234.674 32.2549C237.239 32.2549 239.318 30.1741 239.318 27.6073C239.318 25.0404 237.239 22.9596 234.674 22.9596C232.108 22.9596 230.029 25.0404 230.029 27.6073C230.029 30.1741 232.108 32.2549 234.674 32.2549Z" fill="#2865E9"/>
<path d="M234.674 55.2144C237.239 55.2144 239.318 53.1336 239.318 50.5667C239.318 47.9999 237.239 45.9191 234.674 45.9191C232.108 45.9191 230.029 47.9999 230.029 50.5667C230.029 53.1336 232.108 55.2144 234.674 55.2144Z" fill="#2865E9"/>
<path d="M234.674 78.081C237.239 78.081 239.318 76.0002 239.318 73.4333C239.318 70.8665 237.239 68.7856 234.674 68.7856C232.108 68.7856 230.029 70.8665 230.029 73.4333C230.029 76.0002 232.108 78.081 234.674 78.081Z" fill="#2865E9"/>
<path d="M234.674 101.04C237.239 101.04 239.318 98.9596 239.318 96.3928C239.318 93.826 237.239 91.7451 234.674 91.7451C232.108 91.7451 230.029 93.826 230.029 96.3928C230.029 98.9596 232.108 101.04 234.674 101.04Z" fill="#2865E9"/>
<path d="M234.674 124C237.239 124 239.318 121.919 239.318 119.352C239.318 116.785 237.239 114.705 234.674 114.705C232.108 114.705 230.029 116.785 230.029 119.352C230.029 121.919 232.108 124 234.674 124Z" fill="#2865E9"/>
<path d="M211.73 9.29535C214.295 9.29535 216.374 7.21452 216.374 4.64768C216.374 2.08084 214.295 0 211.73 0C209.165 0 207.085 2.08084 207.085 4.64768C207.085 7.21452 209.165 9.29535 211.73 9.29535Z" fill="#2865E9"/>
<path d="M211.73 32.2549C214.295 32.2549 216.374 30.1741 216.374 27.6073C216.374 25.0404 214.295 22.9596 211.73 22.9596C209.165 22.9596 207.085 25.0404 207.085 27.6073C207.085 30.1741 209.165 32.2549 211.73 32.2549Z" fill="#2865E9"/>
<path d="M211.73 55.2144C214.295 55.2144 216.374 53.1336 216.374 50.5667C216.374 47.9999 214.295 45.9191 211.73 45.9191C209.165 45.9191 207.085 47.9999 207.085 50.5667C207.085 53.1336 209.165 55.2144 211.73 55.2144Z" fill="#2865E9"/>
<path d="M211.73 78.081C214.295 78.081 216.374 76.0002 216.374 73.4333C216.374 70.8665 214.295 68.7856 211.73 68.7856C209.165 68.7856 207.085 70.8665 207.085 73.4333C207.085 76.0002 209.165 78.081 211.73 78.081Z" fill="#2865E9"/>
<path d="M211.73 101.04C214.295 101.04 216.374 98.9596 216.374 96.3928C216.374 93.826 214.295 91.7451 211.73 91.7451C209.165 91.7451 207.085 93.826 207.085 96.3928C207.085 98.9596 209.165 101.04 211.73 101.04Z" fill="#2865E9"/>
<path d="M211.73 124C214.295 124 216.374 121.919 216.374 119.352C216.374 116.785 214.295 114.705 211.73 114.705C209.165 114.705 207.085 116.785 207.085 119.352C207.085 121.919 209.165 124 211.73 124Z" fill="#2865E9"/>
<path d="M188.786 9.29535C191.351 9.29535 193.43 7.21452 193.43 4.64768C193.43 2.08084 191.351 0 188.786 0C186.221 0 184.141 2.08084 184.141 4.64768C184.141 7.21452 186.221 9.29535 188.786 9.29535Z" fill="#2865E9"/>
<path d="M188.786 32.2549C191.351 32.2549 193.43 30.1741 193.43 27.6073C193.43 25.0404 191.351 22.9596 188.786 22.9596C186.221 22.9596 184.141 25.0404 184.141 27.6073C184.141 30.1741 186.221 32.2549 188.786 32.2549Z" fill="#2865E9"/>
<path d="M188.786 55.2144C191.351 55.2144 193.43 53.1336 193.43 50.5667C193.43 47.9999 191.351 45.9191 188.786 45.9191C186.221 45.9191 184.141 47.9999 184.141 50.5667C184.141 53.1336 186.221 55.2144 188.786 55.2144Z" fill="#2865E9"/>
<path d="M188.786 78.081C191.351 78.081 193.43 76.0002 193.43 73.4333C193.43 70.8665 191.351 68.7856 188.786 68.7856C186.221 68.7856 184.141 70.8665 184.141 73.4333C184.141 76.0002 186.221 78.081 188.786 78.081Z" fill="#2865E9"/>
<path d="M188.786 101.04C191.351 101.04 193.43 98.9596 193.43 96.3928C193.43 93.826 191.351 91.7451 188.786 91.7451C186.221 91.7451 184.141 93.826 184.141 96.3928C184.141 98.9596 186.221 101.04 188.786 101.04Z" fill="#2865E9"/>
<path d="M188.786 124C191.351 124 193.43 121.919 193.43 119.352C193.43 116.785 191.351 114.705 188.786 114.705C186.221 114.705 184.141 116.785 184.141 119.352C184.141 121.919 186.221 124 188.786 124Z" fill="#2865E9"/>
<path d="M165.935 9.29535C168.5 9.29535 170.579 7.21452 170.579 4.64768C170.579 2.08084 168.5 0 165.935 0C163.369 0 161.29 2.08084 161.29 4.64768C161.29 7.21452 163.369 9.29535 165.935 9.29535Z" fill="#2865E9"/>
<path d="M165.935 32.2549C168.5 32.2549 170.579 30.1741 170.579 27.6073C170.579 25.0404 168.5 22.9596 165.935 22.9596C163.369 22.9596 161.29 25.0404 161.29 27.6073C161.29 30.1741 163.369 32.2549 165.935 32.2549Z" fill="#2865E9"/>
<path d="M165.935 55.2144C168.5 55.2144 170.579 53.1336 170.579 50.5667C170.579 47.9999 168.5 45.9191 165.935 45.9191C163.369 45.9191 161.29 47.9999 161.29 50.5667C161.29 53.1336 163.369 55.2144 165.935 55.2144Z" fill="#2865E9"/>
<path d="M165.935 78.081C168.5 78.081 170.579 76.0002 170.579 73.4333C170.579 70.8665 168.5 68.7856 165.935 68.7856C163.369 68.7856 161.29 70.8665 161.29 73.4333C161.29 76.0002 163.369 78.081 165.935 78.081Z" fill="#2865E9"/>
<path d="M165.935 101.04C168.5 101.04 170.579 98.9596 170.579 96.3928C170.579 93.826 168.5 91.7451 165.935 91.7451C163.369 91.7451 161.29 93.826 161.29 96.3928C161.29 98.9596 163.369 101.04 165.935 101.04Z" fill="#2865E9"/>
<path d="M165.935 124C168.5 124 170.579 121.919 170.579 119.352C170.579 116.785 168.5 114.705 165.935 114.705C163.369 114.705 161.29 116.785 161.29 119.352C161.29 121.919 163.369 124 165.935 124Z" fill="#2865E9"/>
<path d="M142.991 9.29535C145.556 9.29535 147.635 7.21452 147.635 4.64768C147.635 2.08084 145.556 0 142.991 0C140.426 0 138.346 2.08084 138.346 4.64768C138.346 7.21452 140.426 9.29535 142.991 9.29535Z" fill="#2865E9"/>
<path d="M142.991 32.2549C145.556 32.2549 147.635 30.1741 147.635 27.6073C147.635 25.0404 145.556 22.9596 142.991 22.9596C140.426 22.9596 138.346 25.0404 138.346 27.6073C138.346 30.1741 140.426 32.2549 142.991 32.2549Z" fill="#2865E9"/>
<path d="M142.991 55.2144C145.556 55.2144 147.635 53.1336 147.635 50.5667C147.635 47.9999 145.556 45.9191 142.991 45.9191C140.426 45.9191 138.346 47.9999 138.346 50.5667C138.346 53.1336 140.426 55.2144 142.991 55.2144Z" fill="#2865E9"/>
<path d="M142.991 78.081C145.556 78.081 147.635 76.0002 147.635 73.4333C147.635 70.8665 145.556 68.7856 142.991 68.7856C140.426 68.7856 138.346 70.8665 138.346 73.4333C138.346 76.0002 140.426 78.081 142.991 78.081Z" fill="#2865E9"/>
<path d="M142.991 101.04C145.556 101.04 147.635 98.9596 147.635 96.3928C147.635 93.826 145.556 91.7451 142.991 91.7451C140.426 91.7451 138.346 93.826 138.346 96.3928C138.346 98.9596 140.426 101.04 142.991 101.04Z" fill="#2865E9"/>
<path d="M142.991 124C145.556 124 147.635 121.919 147.635 119.352C147.635 116.785 145.556 114.705 142.991 114.705C140.426 114.705 138.346 116.785 138.346 119.352C138.346 121.919 140.426 124 142.991 124Z" fill="#2865E9"/>
<path d="M120.047 9.29535C122.612 9.29535 124.691 7.21452 124.691 4.64768C124.691 2.08084 122.612 0 120.047 0C117.482 0 115.402 2.08084 115.402 4.64768C115.402 7.21452 117.482 9.29535 120.047 9.29535Z" fill="#2865E9"/>
<path d="M120.047 32.2549C122.612 32.2549 124.691 30.1741 124.691 27.6073C124.691 25.0404 122.612 22.9596 120.047 22.9596C117.482 22.9596 115.402 25.0404 115.402 27.6073C115.402 30.1741 117.482 32.2549 120.047 32.2549Z" fill="#2865E9"/>
<path d="M120.047 55.2144C122.612 55.2144 124.691 53.1336 124.691 50.5667C124.691 47.9999 122.612 45.9191 120.047 45.9191C117.482 45.9191 115.402 47.9999 115.402 50.5667C115.402 53.1336 117.482 55.2144 120.047 55.2144Z" fill="#2865E9"/>
<path d="M120.047 78.081C122.612 78.081 124.691 76.0002 124.691 73.4333C124.691 70.8665 122.612 68.7856 120.047 68.7856C117.482 68.7856 115.402 70.8665 115.402 73.4333C115.402 76.0002 117.482 78.081 120.047 78.081Z" fill="#2865E9"/>
<path d="M120.047 101.04C122.612 101.04 124.691 98.9596 124.691 96.3928C124.691 93.826 122.612 91.7451 120.047 91.7451C117.482 91.7451 115.402 93.826 115.402 96.3928C115.402 98.9596 117.482 101.04 120.047 101.04Z" fill="#2865E9"/>
<path d="M120.047 124C122.612 124 124.691 121.919 124.691 119.352C124.691 116.785 122.612 114.705 120.047 114.705C117.482 114.705 115.402 116.785 115.402 119.352C115.402 121.919 117.482 124 120.047 124Z" fill="#2865E9"/>
<path d="M97.1957 9.29535C99.7608 9.29535 101.84 7.21452 101.84 4.64768C101.84 2.08084 99.7608 0 97.1957 0C94.6306 0 92.5511 2.08084 92.5511 4.64768C92.5511 7.21452 94.6306 9.29535 97.1957 9.29535Z" fill="#2865E9"/>
<path d="M97.1957 32.2549C99.7608 32.2549 101.84 30.1741 101.84 27.6073C101.84 25.0404 99.7608 22.9596 97.1957 22.9596C94.6306 22.9596 92.5511 25.0404 92.5511 27.6073C92.5511 30.1741 94.6306 32.2549 97.1957 32.2549Z" fill="#2865E9"/>
<path d="M97.1957 55.2144C99.7608 55.2144 101.84 53.1336 101.84 50.5667C101.84 47.9999 99.7608 45.9191 97.1957 45.9191C94.6306 45.9191 92.5511 47.9999 92.5511 50.5667C92.5511 53.1336 94.6306 55.2144 97.1957 55.2144Z" fill="#2865E9"/>
<path d="M97.1957 78.081C99.7608 78.081 101.84 76.0002 101.84 73.4333C101.84 70.8665 99.7608 68.7856 97.1957 68.7856C94.6306 68.7856 92.5511 70.8665 92.5511 73.4333C92.5511 76.0002 94.6306 78.081 97.1957 78.081Z" fill="#2865E9"/>
<path d="M97.1957 101.04C99.7608 101.04 101.84 98.9596 101.84 96.3928C101.84 93.826 99.7608 91.7451 97.1957 91.7451C94.6306 91.7451 92.5511 93.826 92.5511 96.3928C92.5511 98.9596 94.6306 101.04 97.1957 101.04Z" fill="#2865E9"/>
<path d="M97.1957 124C99.7608 124 101.84 121.919 101.84 119.352C101.84 116.785 99.7608 114.705 97.1957 114.705C94.6306 114.705 92.5511 116.785 92.5511 119.352C92.5511 121.919 94.6306 124 97.1957 124Z" fill="#2865E9"/>
<path d="M74.2517 9.29535C76.8168 9.29535 78.8962 7.21452 78.8962 4.64768C78.8962 2.08084 76.8168 0 74.2517 0C71.6866 0 69.6072 2.08084 69.6072 4.64768C69.6072 7.21452 71.6866 9.29535 74.2517 9.29535Z" fill="#2865E9"/>
<path d="M74.2517 32.2549C76.8168 32.2549 78.8962 30.1741 78.8962 27.6073C78.8962 25.0404 76.8168 22.9596 74.2517 22.9596C71.6866 22.9596 69.6072 25.0404 69.6072 27.6073C69.6072 30.1741 71.6866 32.2549 74.2517 32.2549Z" fill="#2865E9"/>
<path d="M74.2517 55.2144C76.8168 55.2144 78.8962 53.1336 78.8962 50.5667C78.8962 47.9999 76.8168 45.9191 74.2517 45.9191C71.6866 45.9191 69.6072 47.9999 69.6072 50.5667C69.6072 53.1336 71.6866 55.2144 74.2517 55.2144Z" fill="#2865E9"/>
<path d="M74.2517 78.081C76.8168 78.081 78.8962 76.0002 78.8962 73.4333C78.8962 70.8665 76.8168 68.7856 74.2517 68.7856C71.6866 68.7856 69.6072 70.8665 69.6072 73.4333C69.6072 76.0002 71.6866 78.081 74.2517 78.081Z" fill="#2865E9"/>
<path d="M74.2517 101.04C76.8168 101.04 78.8962 98.9596 78.8962 96.3928C78.8962 93.826 76.8168 91.7451 74.2517 91.7451C71.6866 91.7451 69.6072 93.826 69.6072 96.3928C69.6072 98.9596 71.6866 101.04 74.2517 101.04Z" fill="#2865E9"/>
<path d="M74.2517 124C76.8168 124 78.8962 121.919 78.8962 119.352C78.8962 116.785 76.8168 114.705 74.2517 114.705C71.6866 114.705 69.6072 116.785 69.6072 119.352C69.6072 121.919 71.6866 124 74.2517 124Z" fill="#2865E9"/>
<path d="M51.3076 9.29535C53.8727 9.29535 55.9521 7.21452 55.9521 4.64768C55.9521 2.08084 53.8727 0 51.3076 0C48.7425 0 46.6631 2.08084 46.6631 4.64768C46.6631 7.21452 48.7425 9.29535 51.3076 9.29535Z" fill="#2865E9"/>
<path d="M51.3076 32.2549C53.8727 32.2549 55.9521 30.1741 55.9521 27.6073C55.9521 25.0404 53.8727 22.9596 51.3076 22.9596C48.7425 22.9596 46.6631 25.0404 46.6631 27.6073C46.6631 30.1741 48.7425 32.2549 51.3076 32.2549Z" fill="#2865E9"/>
<path d="M51.3076 55.2144C53.8727 55.2144 55.9521 53.1336 55.9521 50.5667C55.9521 47.9999 53.8727 45.9191 51.3076 45.9191C48.7425 45.9191 46.6631 47.9999 46.6631 50.5667C46.6631 53.1336 48.7425 55.2144 51.3076 55.2144Z" fill="#2865E9"/>
<path d="M51.3076 78.081C53.8727 78.081 55.9521 76.0002 55.9521 73.4333C55.9521 70.8665 53.8727 68.7856 51.3076 68.7856C48.7425 68.7856 46.6631 70.8665 46.6631 73.4333C46.6631 76.0002 48.7425 78.081 51.3076 78.081Z" fill="#2865E9"/>
<path d="M51.3076 101.04C53.8727 101.04 55.9521 98.9596 55.9521 96.3928C55.9521 93.826 53.8727 91.7451 51.3076 91.7451C48.7425 91.7451 46.6631 93.826 46.6631 96.3928C46.6631 98.9596 48.7425 101.04 51.3076 101.04Z" fill="#2865E9"/>
<path d="M51.3076 124C53.8727 124 55.9521 121.919 55.9521 119.352C55.9521 116.785 53.8727 114.705 51.3076 114.705C48.7425 114.705 46.6631 116.785 46.6631 119.352C46.6631 121.919 48.7425 124 51.3076 124Z" fill="#2865E9"/>
<path d="M28.4567 32.2549C31.0218 32.2549 33.1012 30.1741 33.1012 27.6073C33.1012 25.0404 31.0218 22.9596 28.4567 22.9596C25.8916 22.9596 23.8121 25.0404 23.8121 27.6073C23.8121 30.1741 25.8916 32.2549 28.4567 32.2549Z" fill="#2865E9"/>
<path d="M28.4567 55.2144C31.0218 55.2144 33.1012 53.1336 33.1012 50.5667C33.1012 47.9999 31.0218 45.9191 28.4567 45.9191C25.8916 45.9191 23.8121 47.9999 23.8121 50.5667C23.8121 53.1336 25.8916 55.2144 28.4567 55.2144Z" fill="#2865E9"/>
<path d="M28.4567 78.081C31.0218 78.081 33.1012 76.0002 33.1012 73.4333C33.1012 70.8665 31.0218 68.7856 28.4567 68.7856C25.8916 68.7856 23.8121 70.8665 23.8121 73.4333C23.8121 76.0002 25.8916 78.081 28.4567 78.081Z" fill="#2865E9"/>
<path d="M28.4567 101.04C31.0218 101.04 33.1012 98.9596 33.1012 96.3928C33.1012 93.826 31.0218 91.7451 28.4567 91.7451C25.8916 91.7451 23.8121 93.826 23.8121 96.3928C23.8121 98.9596 25.8916 101.04 28.4567 101.04Z" fill="#2865E9"/>
<path d="M5.51269 55.2144C8.07779 55.2144 10.1572 53.1336 10.1572 50.5667C10.1572 47.9999 8.07779 45.9191 5.51269 45.9191C2.94759 45.9191 0.868164 47.9999 0.868164 50.5667C0.868164 53.1336 2.94759 55.2144 5.51269 55.2144Z" fill="#2865E9"/>
<path d="M5.51269 78.081C8.07779 78.081 10.1572 76.0002 10.1572 73.4333C10.1572 70.8665 8.07779 68.7856 5.51269 68.7856C2.94759 68.7856 0.868164 70.8665 0.868164 73.4333C0.868164 76.0002 2.94759 78.081 5.51269 78.081Z" fill="#2865E9"/>
</svg>
