<svg width="32" height="32" viewBox="0 0 32 32" fill="none" xmlns="http://www.w3.org/2000/svg">
<path d="M10.6667 11.9997L14.6667 15.9997L10.6667 19.9997M17.3333 19.9997H21.3333M6.66667 26.6663H25.3333C26.0406 26.6663 26.7189 26.3854 27.219 25.8853C27.7191 25.3852 28 24.7069 28 23.9997V7.99967C28 7.29243 27.7191 6.61415 27.219 6.11406C26.7189 5.61396 26.0406 5.33301 25.3333 5.33301H6.66667C5.95942 5.33301 5.28115 5.61396 4.78105 6.11406C4.28095 6.61415 4 7.29243 4 7.99967V23.9997C4 24.7069 4.28095 25.3852 4.78105 25.8853C5.28115 26.3854 5.95942 26.6663 6.66667 26.6663Z" stroke="#2865E9" stroke-width="2.74633" stroke-linecap="round" stroke-linejoin="round"/>
</svg>
