<svg width="32" height="32" viewBox="0 0 32 32" fill="none" xmlns="http://www.w3.org/2000/svg">
<rect width="32" height="32" rx="4" fill="#61DAFB"/>
<g clip-path="url(#clip0)">
<path d="M25.0104 16C25.0104 14.8101 23.5153 13.6824 21.2231 12.9831C21.752 10.6545 21.5169 8.80183 20.481 8.2087C20.2422 8.06957 19.9631 8.00366 19.6582 8.00366V8.82014C19.8271 8.82014 19.9631 8.85309 20.0769 8.91533C20.5765 9.20092 20.7933 10.2883 20.6243 11.687C20.5839 12.0311 20.5178 12.3936 20.4369 12.7634C19.7169 12.5876 18.9308 12.4522 18.1043 12.3643C17.6084 11.687 17.0941 11.0719 16.5761 10.5336C17.7737 9.42426 18.8978 8.81648 19.6618 8.81648V8C18.6516 8 17.3292 8.71762 15.992 9.96247C14.6549 8.72494 13.3325 8.01465 12.3222 8.01465V8.83112C13.0827 8.83112 14.2104 9.43524 15.408 10.5373C14.8937 11.0755 14.3794 11.687 13.8908 12.3643C13.0606 12.4522 12.2745 12.5876 11.5545 12.767C11.47 12.4009 11.4076 12.0458 11.3635 11.7053C11.1908 10.3066 11.4039 9.21922 11.8998 8.92998C12.01 8.86407 12.1533 8.83478 12.3222 8.83478V8.01831C12.0137 8.01831 11.7345 8.08421 11.492 8.22334C10.4598 8.81648 10.2284 10.6654 10.761 12.9867C8.47613 13.6897 6.98837 14.8137 6.98837 16C6.98837 17.1899 8.48347 18.3176 10.7757 19.0169C10.2467 21.3455 10.4818 23.1982 11.5178 23.7913C11.7565 23.9304 12.0357 23.9963 12.3443 23.9963C13.3545 23.9963 14.6769 23.2787 16.0141 22.0339C17.3512 23.2714 18.6737 23.9817 19.6839 23.9817C19.9924 23.9817 20.2716 23.9158 20.5141 23.7767C21.5463 23.1835 21.7778 21.3346 21.2451 19.0133C23.5227 18.314 25.0104 17.1863 25.0104 16ZM20.2276 13.5579C20.0916 14.0302 19.9227 14.5172 19.7316 15.0041C19.581 14.7112 19.4231 14.4183 19.2504 14.1254C19.0814 13.8325 18.9014 13.5469 18.7214 13.2687C19.2431 13.3455 19.7463 13.4407 20.2276 13.5579ZM18.5451 17.4572C18.2586 17.9515 17.9647 18.4201 17.6598 18.8558C17.1125 18.9034 16.5578 18.9291 15.9994 18.9291C15.4447 18.9291 14.89 18.9034 14.3463 18.8595C14.0414 18.4238 13.7439 17.9588 13.4573 17.4682C13.1782 16.9886 12.9247 16.5016 12.6933 16.011C12.921 15.5204 13.1782 15.0297 13.4537 14.5501C13.7402 14.0558 14.0341 13.5872 14.339 13.1515C14.8863 13.1039 15.441 13.0783 15.9994 13.0783C16.5541 13.0783 17.1088 13.1039 17.6525 13.1478C17.9573 13.5835 18.2549 14.0485 18.5414 14.5391C18.8206 15.0188 19.0741 15.5057 19.3055 15.9963C19.0741 16.487 18.8206 16.9776 18.5451 17.4572ZM19.7316 16.9812C19.93 17.4719 20.099 17.9625 20.2386 18.4384C19.7573 18.5556 19.2504 18.6545 18.7251 18.7314C18.9051 18.4494 19.0851 18.1602 19.2541 17.8636C19.4231 17.5707 19.581 17.2741 19.7316 16.9812ZM16.0067 20.8879C15.6651 20.5364 15.3235 20.1446 14.9855 19.7162C15.3161 19.7309 15.6541 19.7419 15.9957 19.7419C16.341 19.7419 16.6827 19.7346 17.0169 19.7162C16.6863 20.1446 16.3447 20.5364 16.0067 20.8879ZM13.2737 18.7314C12.752 18.6545 12.2488 18.5593 11.7676 18.4421C11.9035 17.9698 12.0725 17.4828 12.2635 16.9959C12.4141 17.2888 12.572 17.5817 12.7447 17.8746C12.9174 18.1675 13.0937 18.4531 13.2737 18.7314ZM15.9884 11.1121C16.33 11.4636 16.6716 11.8554 17.0096 12.2838C16.679 12.2691 16.341 12.2581 15.9994 12.2581C15.6541 12.2581 15.3125 12.2654 14.9782 12.2838C15.3088 11.8554 15.6504 11.4636 15.9884 11.1121ZM13.27 13.2687C13.09 13.5506 12.91 13.8398 12.741 14.1364C12.572 14.4293 12.4141 14.7222 12.2635 15.0151C12.0651 14.5245 11.8961 14.0339 11.7565 13.5579C12.2378 13.4444 12.7447 13.3455 13.27 13.2687ZM9.94552 17.8526C8.64511 17.2998 7.80388 16.5748 7.80388 16C7.80388 15.4252 8.64511 14.6966 9.94552 14.1474C10.2614 14.0119 10.6067 13.8911 10.9631 13.7776C11.1725 14.4952 11.448 15.2421 11.7896 16.0073C11.4516 16.7689 11.1798 17.5121 10.9741 18.2261C10.6104 18.1126 10.2651 17.9881 9.94552 17.8526ZM11.9218 23.0847C11.4222 22.7991 11.2055 21.7117 11.3745 20.313C11.4149 19.9689 11.481 19.6064 11.5618 19.2366C12.2818 19.4124 13.068 19.5478 13.8945 19.6357C14.3904 20.313 14.9047 20.9281 15.4227 21.4664C14.2251 22.5757 13.101 23.1835 12.3369 23.1835C12.1716 23.1799 12.032 23.1469 11.9218 23.0847ZM20.6353 20.2947C20.808 21.6934 20.5949 22.7808 20.099 23.07C19.9888 23.1359 19.8455 23.1652 19.6765 23.1652C18.9161 23.1652 17.7884 22.5611 16.5908 21.459C17.1051 20.9208 17.6194 20.3094 18.108 19.632C18.9382 19.5442 19.7243 19.4087 20.4443 19.2293C20.5288 19.5991 20.5949 19.9542 20.6353 20.2947ZM22.0496 17.8526C21.7337 17.9881 21.3884 18.1089 21.032 18.2224C20.8227 17.5048 20.5471 16.7579 20.2055 15.9927C20.5435 15.2311 20.8153 14.4879 21.021 13.7739C21.3847 13.8874 21.73 14.0119 22.0533 14.1474C23.3537 14.7002 24.1949 15.4252 24.1949 16C24.1912 16.5748 23.35 17.3034 22.0496 17.8526Z" fill="white"/>
<path d="M15.9963 17.6732C16.9235 17.6732 17.6751 16.9241 17.6751 16C17.6751 15.0759 16.9235 14.3268 15.9963 14.3268C15.0692 14.3268 14.3176 15.0759 14.3176 16C14.3176 16.9241 15.0692 17.6732 15.9963 17.6732Z" fill="white"/>
</g>
<defs>
<clipPath id="clip0">
<rect width="18" height="16" fill="white" transform="translate(7 8)"/>
</clipPath>
</defs>
</svg>
