<svg width="22" height="22" viewBox="0 0 22 22" fill="none" xmlns="http://www.w3.org/2000/svg">
<path d="M6.54594 12.669L5.989 14.7481L3.95341 14.7912C3.34506 13.6628 3 12.3719 3 11C3 9.67339 3.32263 8.42239 3.8945 7.32086H3.89494L5.70719 7.65311L6.50106 9.45449C6.33491 9.93889 6.24434 10.4589 6.24434 11C6.24441 11.5872 6.35078 12.1499 6.54594 12.669Z" fill="#FBBB00"/>
<path d="M18.8602 9.50549C18.9521 9.98943 19 10.4892 19 11C19 11.5727 18.9398 12.1314 18.8251 12.6703C18.4357 14.5042 17.4181 16.1055 16.0084 17.2387L16.008 17.2382L13.7253 17.1218L13.4023 15.1051C14.3377 14.5565 15.0687 13.698 15.4537 12.6703H11.1759V9.50549H15.5161H18.8602Z" fill="#518EF8"/>
<path d="M16.0079 17.2383L16.0083 17.2387C14.6373 18.3407 12.8958 19 11 19C7.95337 19 5.30459 17.2972 3.95337 14.7912L6.5459 12.669C7.22149 14.4721 8.96084 15.7556 11 15.7556C11.8764 15.7556 12.6976 15.5187 13.4021 15.1051L16.0079 17.2383Z" fill="#28B446"/>
<path d="M16.1064 4.84175L13.5148 6.9635C12.7855 6.50769 11.9235 6.24437 11 6.24437C8.91475 6.24437 7.14288 7.58678 6.50113 9.4545L3.89497 7.32088H3.89453C5.22597 4.75384 7.90816 3 11 3C12.9411 3 14.7209 3.69144 16.1064 4.84175Z" fill="#F14336"/>
</svg>
