<svg width="104" height="22" viewBox="0 0 104 22" fill="none" xmlns="http://www.w3.org/2000/svg">
<path d="M53.3823 10.7087C52.5261 10.7087 51.9089 10.9895 51.2831 11.2755V17.7478C51.8825 17.8049 52.2261 17.8049 52.7949 17.8049C54.8499 17.8049 55.1316 16.8638 55.1316 15.5497V12.4585C55.1316 11.4881 54.8096 10.7087 53.3823 10.7087ZM39.7342 10.3555C38.3084 10.3555 37.983 11.1383 37.983 12.1077V12.6524H41.4836V12.1077C41.4836 11.1383 41.1582 10.3555 39.7342 10.3555ZM13.2953 17.0922C13.2953 17.8591 13.6572 18.2575 14.4558 18.2575C15.3124 18.2575 15.8197 17.9781 16.445 17.6911V16.1559H14.5719C13.685 16.1559 13.2953 16.321 13.2953 17.0922ZM66.6584 10.7087C65.2301 10.7087 64.7353 11.4881 64.7353 12.4585V15.9999C64.7353 16.9727 65.2301 17.7545 66.6584 17.7545C68.0828 17.7545 68.5814 16.9727 68.5814 15.9999V12.4585C68.581 11.4881 68.0823 10.7087 66.6584 10.7087ZM6.29611 21.0631H2.09774V10.9012H0V7.39967H2.09822V5.29664C2.09822 2.43966 3.28219 0.741211 6.64741 0.741211H9.4492V4.24369H7.69796C6.38777 4.24369 6.30138 4.73321 6.30138 5.64651L6.29611 7.39919H9.46839L9.09741 10.9007H6.29611V21.0631ZM20.6444 21.0895H17.1452L16.9941 20.2045C15.3964 21.0895 13.9705 21.233 13.0299 21.233C10.4638 21.233 9.09789 19.5187 9.09789 17.1479C9.09789 14.3509 10.6917 13.3526 13.5429 13.3526H16.445V12.7479C16.445 11.3202 16.2814 10.9012 14.0857 10.9012H10.4959L10.8467 7.39967H14.7706C19.588 7.39967 20.6444 8.9215 20.6444 12.7762V21.0895ZM32.5431 11.1579C30.3657 10.7846 29.7403 10.7025 28.6927 10.7025C26.8109 10.7025 26.2422 11.1176 26.2422 12.7158V15.7388C26.2422 17.337 26.8109 17.754 28.6927 17.754C29.7403 17.754 30.3657 17.6705 32.5431 17.2957V20.7113C30.6359 21.1389 29.3933 21.2512 28.3433 21.2512C23.8358 21.2512 22.0443 18.8809 22.0443 15.4566V13.0037C22.0443 9.5766 23.8358 7.20194 28.3433 7.20194C29.3933 7.20194 30.6359 7.31472 32.5431 7.74425V11.1579ZM45.6814 15.4566H37.9825V15.7388C37.9825 17.337 38.5517 17.754 40.433 17.754C42.1243 17.754 43.1566 17.6705 45.3301 17.2957V20.7113C43.2338 21.1389 42.1415 21.2512 40.0851 21.2512C35.5771 21.2512 33.7846 18.8809 33.7846 15.4566V12.6519C33.7846 9.65579 35.1145 7.20194 39.7338 7.20194C44.353 7.20194 45.6814 9.62747 45.6814 12.6519V15.4566ZM59.329 15.5214C59.329 18.831 58.3831 21.245 52.6528 21.245C50.5834 21.245 49.3696 21.0631 47.0857 20.7118V1.7932L51.2826 1.093V7.71066C52.1897 7.37375 53.3636 7.20242 54.4319 7.20242C58.6293 7.20242 59.3285 9.0842 59.3285 12.1082V15.5214H59.329ZM72.7827 15.5934C72.7827 18.4485 71.604 21.2176 66.6723 21.2176C61.7382 21.2176 60.5374 18.4485 60.5374 15.5934V12.8367C60.5374 9.98021 61.7382 7.21058 66.6723 7.21058C71.604 7.21058 72.7827 9.98021 72.7827 12.8367V15.5934ZM86.2272 15.5934C86.2272 18.4485 85.0471 21.2176 80.1164 21.2176C75.1823 21.2176 73.9815 18.4485 73.9815 15.5934V12.8367C73.9815 9.98021 75.1823 7.21058 80.1164 7.21058C85.0471 7.21058 86.2272 9.98021 86.2272 12.8367V15.5934ZM100.025 21.0631H95.4753L91.6278 14.6403V21.0631H87.4294V1.79272L91.6278 1.09251V13.4981L95.4753 7.39967H100.025L95.8242 14.0548L100.025 21.0631ZM80.102 10.7087C78.6761 10.7087 78.1813 11.4881 78.1813 12.4585V15.9999C78.1813 16.9727 78.6761 17.7545 80.102 17.7545C81.5259 17.7545 82.0298 16.9727 82.0298 15.9999V12.4585C82.0298 11.4881 81.5259 10.7087 80.102 10.7087ZM102.421 18.6663C103.128 18.6663 103.691 19.2427 103.691 19.9626C103.691 20.6935 103.127 21.2637 102.415 21.2637C101.707 21.2637 101.133 20.6935 101.133 19.9626C101.133 19.2427 101.707 18.6663 102.415 18.6663H102.421ZM102.415 18.8679C101.846 18.8679 101.38 19.3579 101.38 19.9626C101.38 20.5784 101.846 21.0621 102.421 21.0621C102.996 21.0679 103.455 20.5784 103.455 19.9684C103.455 19.3584 102.996 18.8679 102.421 18.8679H102.415ZM102.174 20.7171H101.944V19.2706C102.065 19.2538 102.18 19.237 102.353 19.237C102.571 19.237 102.714 19.283 102.802 19.3459C102.887 19.4097 102.933 19.5072 102.933 19.6449C102.933 19.8359 102.807 19.9506 102.652 19.9972V20.0082C102.778 20.0317 102.864 20.146 102.894 20.3586C102.927 20.5836 102.962 20.6695 102.985 20.7166H102.743C102.709 20.6695 102.674 20.5376 102.645 20.347C102.612 20.1632 102.519 20.0941 102.334 20.0941H102.175V20.7171H102.174ZM102.174 19.9165H102.341C102.53 19.9165 102.691 19.847 102.691 19.6679C102.691 19.5412 102.6 19.415 102.341 19.415C102.266 19.415 102.213 19.4208 102.174 19.4261V19.9165Z" fill="#CBD5E1"/>
</svg>
