<svg width="76" height="25" viewBox="0 0 76 25" fill="none" xmlns="http://www.w3.org/2000/svg">
<path d="M11.1877 15.9164C11.6308 15.4364 12.0369 15.0302 12.3692 14.6979L13.2554 13.8118C13.5138 13.5533 13.7723 13.3318 13.9938 13.1471C14.2154 12.9625 14.4369 12.741 14.6954 12.5564C15.2123 12.1133 15.6185 11.8179 15.9508 11.6333C16.2831 11.4487 16.6154 11.3748 16.9108 11.3748C17.3538 11.3748 17.7231 11.5225 18.0923 11.8548C18.4246 12.1871 18.6092 12.5564 18.6092 12.9625C18.6092 13.2579 18.5354 13.5902 18.3508 13.8856C18.1662 14.2179 17.8708 14.661 17.4646 15.2148C15.4708 17.8364 14.4738 19.4979 14.4738 20.2733C14.4738 20.6056 14.6215 20.7902 14.9908 20.7902C15.2492 20.7902 15.5446 20.6795 15.84 20.4579C16.1354 20.2364 16.5415 19.8671 17.0215 19.3133C17.28 19.0179 17.5754 18.6487 17.9446 18.1687C18.3138 17.6887 18.6462 17.2456 18.9415 16.8394C19.2369 16.4333 19.4585 16.1379 19.6431 15.9902C19.8277 15.8425 20.0492 15.7687 20.3077 15.7687C20.5662 15.7687 20.7877 15.8425 20.9723 16.0271C21.1569 16.2118 21.2308 16.4333 21.2308 16.6918C21.2308 17.1718 21.0092 17.8364 20.5662 18.6487C20.1231 19.461 19.5323 20.2733 18.8308 21.1225C17.9446 22.1933 17.0215 23.0425 16.0985 23.6333C15.1754 24.2241 14.3262 24.5195 13.5508 24.5195C12.8492 24.5195 12.2585 24.2979 11.7785 23.8179C11.2985 23.3379 11.0769 22.7471 11.0769 22.0087C11.0769 21.6395 11.1138 21.2702 11.1877 20.901C11.2615 20.5687 11.3354 20.1995 11.4831 19.8302C11.5938 19.461 11.7785 19.0548 12.0369 18.6487C12.2954 18.2425 12.5538 17.7625 12.9231 17.2456C12.96 17.2087 12.9969 17.0979 13.1077 16.9502C12.4431 17.4671 11.7785 18.0948 11.1138 18.9071C10.4492 19.6825 9.78462 20.6795 9.12 21.9348C8.64 22.7471 8.27077 23.301 8.01231 23.5595C7.75385 23.8179 7.42154 23.9656 7.05231 23.9656C6.64615 23.9656 6.31385 23.8179 6.01846 23.5225C5.76 23.2271 5.61231 22.8579 5.61231 22.4148C5.61231 22.1195 5.64923 21.861 5.72308 21.6025C5.79692 21.3441 5.90769 20.9748 6.12923 20.4948C6.24 20.1256 6.42461 19.7564 6.64615 19.3133C6.86769 18.9071 7.01538 18.5748 7.2 18.3164L7.93846 17.061C7.97538 17.0241 8.04923 16.8764 8.16 16.6918C7.64308 17.0979 7.16308 17.5779 6.64615 18.0948C6.09231 18.501 5.61231 19.0179 5.16923 19.6087C4.72615 20.1625 4.32 20.7533 3.98769 21.3071C3.65538 21.8979 3.36 22.4518 3.13846 22.9687C2.80615 23.6702 2.51077 24.1502 2.28923 24.4087C2.03077 24.6671 1.73538 24.7779 1.36615 24.7779C0.996923 24.7779 0.627692 24.6302 0.369231 24.2979C0.110769 24.0025 0 23.5964 0 23.1164C0 22.1564 0.48 20.4579 1.40308 18.0948C1.95692 16.7287 2.51077 15.4733 3.13846 14.3287C3.76615 13.1841 4.39385 12.1871 4.98462 11.3748C5.35385 10.9318 5.64923 10.5994 5.90769 10.3779C6.16615 10.1933 6.46154 10.0825 6.75692 10.0825C7.08923 10.0825 7.38461 10.1933 7.60615 10.4148C7.86461 10.6364 7.97538 10.9318 7.97538 11.2641C7.97538 11.5225 7.90154 11.781 7.79077 12.0764C7.68 12.3718 7.38461 12.8518 6.97846 13.5533C6.90461 13.6641 6.79385 13.8856 6.64615 14.1441C6.49846 14.4025 6.31385 14.7348 6.05538 15.1779L5.64923 16.0271C6.42461 15.1041 7.08923 14.3287 7.68 13.701C8.27077 13.0733 8.75077 12.5564 9.19385 12.1502C9.63692 11.781 10.0062 11.4856 10.3754 11.301C10.7077 11.1164 11.04 11.0425 11.2985 11.0425C11.6677 11.0425 11.9631 11.1533 12.2215 11.4118C12.48 11.6702 12.5908 11.9656 12.5908 12.2979C12.5908 12.5194 12.5538 12.7779 12.4431 13.0733C12.3323 13.3687 12.1108 13.7748 11.7785 14.3656L10.9662 15.8425L10.7077 16.3964L11.1877 15.9164Z" fill="#CBD5E1"/>
<path d="M20.8247 23.1906C20.1231 23.1906 19.4954 22.8953 19.0524 22.3414C18.5724 21.7876 18.3508 21.0491 18.3508 20.1629C18.3508 19.2029 18.5724 18.1322 19.0524 16.9506C19.4954 15.7691 20.1231 14.6614 20.9354 13.6276C21.8216 12.4091 22.7447 11.5229 23.7047 10.8952C24.6647 10.2676 25.5877 9.97217 26.4739 9.97217C27.2862 9.97217 27.9508 10.2306 28.4677 10.7476C28.9846 11.2645 29.2431 11.966 29.2431 12.8152C29.2431 13.1106 29.2062 13.406 29.1323 13.6276C29.0585 13.886 28.9846 14.1445 28.837 14.4768C29.0954 14.6983 29.2431 14.846 29.3539 14.9937C29.4277 15.1045 29.4646 15.2522 29.4646 15.3999C29.4646 15.5106 29.4277 15.6583 29.3908 15.7691C29.3539 15.8799 29.2062 16.0645 29.0216 16.3229C28.6523 16.8399 28.32 17.3199 28.0985 17.7999C27.877 18.2429 27.7662 18.6491 27.7662 18.9076C27.7662 19.3137 27.9877 19.5353 28.4308 19.5353C28.8 19.5353 29.2431 19.3137 29.76 18.8337C30.2769 18.3906 30.8677 17.6153 31.6062 16.6183C32.0492 15.9906 32.4923 15.6953 32.8985 15.6953C33.1939 15.6953 33.4154 15.7691 33.5631 15.9537C33.7108 16.1383 33.8216 16.3599 33.8216 16.6553C33.8216 17.0983 33.6 17.6522 33.1939 18.3537C32.7877 19.0553 32.2339 19.7568 31.4954 20.4953C29.8339 22.2306 28.2462 23.1168 26.7323 23.1168C26.1785 23.1168 25.6985 22.9322 25.3293 22.526C24.96 22.1199 24.7385 21.6399 24.7385 21.086V20.7537C23.4831 22.3414 22.1908 23.1906 20.8247 23.1906ZM24.48 17.7999C24.4062 17.5783 24.3693 17.4306 24.3693 17.3937C24.3693 17.246 24.4431 17.0983 24.5539 16.9876L25.1816 16.3229C25.477 16.0276 25.7723 15.6214 25.9939 15.1783C26.2523 14.7352 26.3631 14.366 26.3631 14.1076C26.3631 13.7014 26.1416 13.4799 25.7354 13.4799C25.4031 13.4799 24.997 13.6645 24.517 14.0337C24.037 14.4029 23.5939 14.8829 23.1508 15.5106C22.7447 16.1014 22.4124 16.7291 22.117 17.3568C21.8585 17.9845 21.7108 18.5014 21.7108 18.8706C21.7108 19.3137 21.8954 19.5353 22.3016 19.5353C22.597 19.5353 22.8554 19.4245 23.1508 19.2399C23.4462 19.0183 23.7785 18.6491 24.2216 18.1322C24.2954 18.0214 24.3693 17.9106 24.48 17.7999Z" fill="#CBD5E1"/>
<path d="M37.8462 16.5072C36.8862 17.1718 35.9632 17.9841 35.1139 18.9072C34.2647 19.8303 33.6001 20.7903 33.157 21.7133L32.3078 23.4857C32.0862 23.8918 31.9016 24.1872 31.6432 24.3349C31.4216 24.4826 31.1263 24.5933 30.757 24.5933C30.3509 24.5933 30.0186 24.4826 29.7601 24.2241C29.5016 23.9657 29.3909 23.6703 29.3909 23.2272C29.3909 22.8949 29.4647 22.4149 29.6493 21.8241C29.8339 21.2333 30.0555 20.5687 30.3139 19.8303C30.6093 19.0918 30.9047 18.3533 31.3109 17.578C31.6801 16.8026 32.0862 16.0641 32.4924 15.3626C32.8616 14.7349 33.2309 14.1441 33.637 13.5903C34.0432 12.9995 34.3755 12.5564 34.7078 12.261C35.2247 11.7072 35.7416 11.4487 36.2955 11.4487C36.6647 11.4487 36.9601 11.5595 37.2185 11.781C37.477 12.0026 37.5878 12.298 37.5878 12.5933C37.5878 12.8518 37.5139 13.0733 37.4032 13.2949C37.2924 13.5164 36.997 13.8487 36.5909 14.3657C36.2216 14.7718 35.8893 15.2149 35.5939 15.6949C35.2985 16.1749 35.0032 16.6549 34.8555 17.0241L35.1139 16.7287C35.8155 15.9533 36.4432 15.2518 37.0709 14.7349C37.6985 14.181 38.3632 13.6272 39.1385 13.0364C39.8401 12.5195 40.3939 12.1503 40.7632 11.9657C41.1324 11.7441 41.4278 11.6703 41.7231 11.6703C42.0185 11.6703 42.3139 11.781 42.5355 12.0395C42.7939 12.298 42.9047 12.5933 42.9047 12.8887C42.9047 13.1841 42.8308 13.4795 42.6462 13.701C42.4616 13.9595 42.1293 14.218 41.6862 14.5133C41.2432 14.8457 40.9108 15.141 40.6155 15.4364C40.357 15.7318 40.2093 15.9533 40.2093 16.101C40.2093 16.3226 40.3201 16.3964 40.5785 16.3964C40.7632 16.3964 41.0216 16.2857 41.3539 16.101C41.6862 15.8795 42.0924 15.621 42.5355 15.2518C42.9047 14.9564 43.1631 14.7718 43.3108 14.698C43.4585 14.6241 43.6062 14.5503 43.7539 14.5503C44.0493 14.5503 44.2708 14.661 44.4555 14.8457C44.6401 15.0303 44.7139 15.2887 44.7139 15.5472C44.7139 15.9533 44.5293 16.3964 44.197 16.8764C43.8647 17.3564 43.3478 17.7995 42.7201 18.2426C41.4647 19.1287 40.2832 19.5349 39.2124 19.5349C38.6585 19.5349 38.1785 19.3872 37.8093 19.0918C37.4401 18.7964 37.2555 18.4272 37.2555 17.9472C37.3293 17.5041 37.5139 17.0241 37.8462 16.5072Z" fill="#CBD5E1"/>
<path d="M50.3261 18.5013C49.2922 20.1998 48.2215 21.5659 47.0769 22.5259C45.9322 23.4859 44.8245 24.0028 43.8276 24.0028C43.1261 24.0028 42.4984 23.7444 42.0553 23.1905C41.5753 22.6367 41.3538 21.9721 41.3538 21.1228C41.3538 20.5321 41.4645 19.8675 41.6861 19.0921C41.9076 18.3536 42.203 17.5413 42.6091 16.6551L43.9015 13.9598C44.123 13.5905 44.2707 13.2213 44.4553 12.8521L44.8984 11.7444C45.1199 11.1905 45.3415 10.8213 45.563 10.6367C45.8215 10.4152 46.1168 10.3413 46.4492 10.3413C46.8184 10.3413 47.1138 10.4521 47.3722 10.7105C47.6307 10.969 47.7415 11.3013 47.7415 11.7075C47.7415 12.0767 47.6676 12.5198 47.483 13.0736C47.2984 13.6275 47.0769 14.1813 46.8184 14.6982L45.8215 16.6551C45.5261 17.209 45.2676 17.7998 45.0461 18.3536C44.8245 18.9075 44.7507 19.3505 44.7507 19.609C44.7507 19.7567 44.7876 19.9044 44.8984 20.0151C44.9722 20.1259 45.083 20.1998 45.2307 20.1998C45.4892 20.1998 45.7845 20.0521 46.0799 19.7567C46.4122 19.4613 46.8184 18.9813 47.3353 18.2798C47.7045 17.8367 47.9999 17.4305 48.2215 17.0613C48.443 16.6921 48.6276 16.3967 48.7753 16.0644C48.7384 15.769 48.7015 15.5475 48.7015 15.3998V14.9567C48.7015 14.4028 48.7753 13.8859 48.923 13.369C49.0707 12.8521 49.2922 12.3721 49.5507 12.0028C49.8092 11.5967 50.1046 11.2644 50.3999 11.0059C50.7322 10.7475 51.0646 10.6367 51.3969 10.6367C51.7661 10.6367 52.0246 10.8213 52.2461 11.1536C52.4676 11.4859 52.5415 11.8921 52.5415 12.409C52.5415 12.9628 52.4676 13.5536 52.3199 14.1813C52.1722 14.809 51.9507 15.3628 51.6553 15.8428C51.7661 15.8798 51.9138 15.8798 52.0246 15.8798C52.4676 15.8798 52.9846 15.6582 53.5015 15.2521C53.7599 15.0305 53.9446 14.8828 54.1292 14.7721C54.3138 14.6613 54.3876 14.5505 54.4984 14.5136C54.5723 14.4398 54.6461 14.4028 54.7199 14.4028C54.7938 14.4028 54.8676 14.3659 54.9784 14.3659C55.1999 14.3659 55.4215 14.4767 55.6061 14.6613C55.7907 14.8459 55.9015 15.0675 55.9015 15.3259C55.9015 15.6951 55.7907 16.1013 55.5323 16.5075C55.2738 16.9136 54.9415 17.2828 54.5353 17.6151C54.1292 17.9475 53.6861 18.2059 53.2061 18.4275C52.7261 18.649 52.2461 18.7228 51.803 18.7228C51.5815 18.7228 51.3599 18.6859 51.1384 18.649C50.843 18.6859 50.6215 18.6121 50.3261 18.5013Z" fill="#CBD5E1"/>
<path d="M55.0524 18.7966C54.9416 18.9812 54.8678 19.1289 54.8309 19.2397C54.7939 19.3504 54.757 19.4981 54.757 19.6458C54.757 20.0889 54.9047 20.4212 55.1632 20.6427C55.4216 20.8643 55.7909 20.975 56.2709 20.975C56.9724 20.975 57.7847 20.6797 58.7078 20.052C59.6309 19.4243 60.4432 18.6858 61.1447 17.7627L61.957 16.692C62.2524 16.3227 62.5847 16.1012 62.917 16.1012C63.2124 16.1012 63.434 16.212 63.6186 16.3966C63.8032 16.6181 63.914 16.8766 63.914 17.2089C63.914 17.652 63.7294 18.2058 63.3601 18.8335C62.9909 19.4612 62.474 20.1258 61.8093 20.8273C60.8493 21.8612 59.7786 22.6366 58.6709 23.2273C57.5263 23.8181 56.4924 24.0766 55.4955 24.0766C54.3509 24.0766 53.4647 23.7073 52.7632 22.9689C52.0616 22.2304 51.6924 21.3073 51.6924 20.1627C51.6924 19.055 51.9508 17.9473 52.4308 16.7658C52.9108 15.6212 53.5385 14.5504 54.3139 13.6273C55.0893 12.6673 55.9386 11.892 56.8616 11.3012C57.7847 10.7104 58.7078 10.415 59.594 10.415C60.3324 10.415 60.9232 10.6735 61.4032 11.1535C61.8463 11.6335 62.1047 12.2612 62.1047 13.0366C62.1047 13.775 61.9201 14.5135 61.5878 15.215C61.2555 15.9166 60.8124 16.5812 60.2586 17.135C59.7047 17.6889 59.077 18.1689 58.3755 18.5012C57.6739 18.8335 56.9355 19.0181 56.197 19.0181C55.9755 19.0181 55.8278 18.9812 55.6801 18.9443C55.4586 18.8704 55.2739 18.8335 55.0524 18.7966ZM56.197 16.0643C56.3078 16.1012 56.3816 16.1012 56.4555 16.1381C56.5293 16.1381 56.6032 16.175 56.7139 16.175C57.0093 16.175 57.2678 16.1012 57.5632 15.9904C57.8586 15.8797 58.117 15.695 58.3755 15.4735C58.634 15.252 58.8186 15.0304 58.9663 14.772C59.114 14.5135 59.1878 14.255 59.1878 13.9966C59.1878 13.7012 59.077 13.5535 58.8186 13.5535C58.5232 13.5535 58.117 13.812 57.6001 14.3289C57.0832 14.772 56.6032 15.3627 56.197 16.0643Z" fill="#CBD5E1"/>
<path d="M64.6892 19.1658C64.6523 19.2027 64.6523 19.2766 64.6523 19.3504V19.4981C64.6523 19.7935 64.7631 20.052 64.9846 20.2735C65.2062 20.4951 65.4646 20.6058 65.7231 20.6058C66.6092 20.6058 67.9754 19.4612 69.7477 17.172L70.4123 16.3966C70.8554 15.8427 71.2985 15.5474 71.6677 15.5474C71.9262 15.5474 72.1108 15.6212 72.2954 15.8058C72.4431 15.9904 72.5169 16.212 72.5169 16.5074C72.5169 16.7289 72.4431 17.0243 72.2954 17.3566C72.1477 17.6889 71.9631 18.0951 71.7046 18.5012C71.4462 18.9074 71.1508 19.3504 70.8185 19.7935C70.4862 20.2366 70.1169 20.6797 69.7108 21.0858C67.8277 23.0427 66.0554 24.0397 64.4677 24.0397C63.5077 24.0397 62.7323 23.7074 62.1415 23.0797C61.5508 22.452 61.2554 21.5658 61.2554 20.4581C61.2554 19.6458 61.3661 18.7597 61.6246 17.8735C61.8831 16.9504 62.3261 15.8427 62.9169 14.4766C63.36 13.4797 63.8769 12.4458 64.5046 11.3381C65.1323 10.2674 65.76 9.1966 66.4246 8.16275C67.0892 7.1289 67.7538 6.1689 68.4554 5.28275C69.12 4.3966 69.7846 3.65813 70.3385 3.06736C71.1508 2.25506 71.8892 1.66429 72.5169 1.29506C73.1446 0.925826 73.7354 0.741211 74.2523 0.741211C74.7323 0.741211 75.1385 0.925826 75.3969 1.29506C75.6923 1.66429 75.8031 2.14429 75.8031 2.69813C75.8031 3.2889 75.6923 3.95352 75.5077 4.7289C75.2862 5.50429 75.0277 6.3166 74.6585 7.16583C74.2892 8.01506 73.8462 8.86429 73.3292 9.78736C72.8123 10.6735 72.2585 11.5597 71.5939 12.4458C70.6339 13.7381 69.6 14.9197 68.4923 15.9904C67.4215 17.0243 66.1662 18.0951 64.6892 19.1658ZM65.8338 15.3997C66.6462 14.6243 67.3846 13.8858 67.9754 13.2212C68.6031 12.5197 69.1939 11.7443 69.8215 10.8581C70.2277 10.3043 70.5969 9.71352 70.9662 9.12275C71.3354 8.53198 71.6308 7.94121 71.8892 7.38736C72.1477 6.83352 72.3692 6.35352 72.5539 5.91044C72.7016 5.50429 72.8123 5.17198 72.8123 4.91352C72.8123 4.69198 72.7385 4.58121 72.5539 4.58121C72.2954 4.58121 71.9262 4.8766 71.4092 5.50429C70.8923 6.13198 70.3015 7.01813 69.6 8.16275C69.3046 8.60583 69.0462 9.0489 68.7877 9.49198C68.5292 9.93506 68.16 10.6366 67.7169 11.4858C67.4215 12.0027 67.2 12.4458 67.0154 12.8151C66.8308 13.1843 66.6462 13.5166 66.4985 13.812C66.3508 14.1074 66.24 14.3658 66.1292 14.6243C66.0554 14.8827 65.9446 15.1412 65.8338 15.3997Z" fill="#CBD5E1"/>
</svg>
