<svg width="43" height="49" viewBox="0 0 43 49" fill="none" xmlns="http://www.w3.org/2000/svg">
<path d="M36.2491 26.1402C36.2387 25.2093 36.0208 24.2901 35.6813 23.4267C35.4194 22.7582 35.1152 22.1073 34.8181 21.4541C32.4544 16.3028 29.9739 11.2059 27.3785 6.16729C27.0135 5.46326 26.6562 4.75498 26.2707 4.06184C25.8918 3.38571 25.4508 2.73481 24.8799 2.20559C23.9689 1.33711 22.7466 0.819318 21.4921 0.741211H20.9145C19.6231 0.804972 18.3624 1.34694 17.4358 2.25023C16.8858 2.77121 16.4602 3.40643 16.0915 4.0637C15.711 4.74542 15.3588 5.44254 15.0006 6.13541C13.2591 9.5159 11.5689 12.9226 9.93055 16.3542C8.95394 18.4079 7.98556 20.465 7.05412 22.5388C6.66783 23.4028 6.31847 24.2962 6.18697 25.2393C5.94334 26.8318 6.2927 28.5031 7.14338 29.8705C7.87664 31.0584 8.97732 32.0156 10.2602 32.5684C11.2632 33.0013 12.3532 33.1942 13.4438 33.1319C14.9005 33.0546 16.3051 32.5312 17.5375 31.7674C18.9124 30.9237 20.0882 29.8015 21.1831 28.6267C22.2011 29.7239 23.2907 30.7709 24.5483 31.5916C25.763 32.3907 27.1479 32.9693 28.6046 33.1069C30.1867 33.2722 31.8259 32.8801 33.1537 31.9994C34.3281 31.2212 35.2376 30.1036 35.761 28.7956C36.098 27.9516 36.2639 27.049 36.2491 26.1402ZM21.1897 25.526C20.7925 25.0584 20.4426 24.5526 20.0912 24.0505C19.4998 23.183 18.9621 22.2763 18.5295 21.3183C18.1751 20.5234 17.8906 19.6889 17.7796 18.8223C17.6985 18.1347 17.7179 17.4174 17.9703 16.7647C18.1961 16.1526 18.6302 15.6223 19.1802 15.2719C20.4905 14.4262 22.3581 14.5176 23.5454 15.5434C24.1464 16.0553 24.5053 16.8122 24.5956 17.5901C24.7139 18.6241 24.4787 19.6626 24.1177 20.627C23.436 22.4166 22.3568 24.0207 21.1897 25.526ZM34.0464 27.7191C33.6962 28.9277 32.8546 29.9834 31.7534 30.5926C30.7773 31.1386 29.6123 31.3256 28.5119 31.1418C27.1105 30.9237 25.8531 30.18 24.7635 29.3023C23.9628 28.6588 23.2418 27.9234 22.551 27.1655C23.6416 25.7861 24.669 24.343 25.4538 22.7654C26.1387 21.3839 26.6591 19.8871 26.7085 18.3337C26.7364 17.3481 26.551 16.3444 26.0906 15.4669C25.4878 14.2945 24.4078 13.3938 23.1698 12.9581C22.0133 12.545 20.7277 12.5081 19.5479 12.8444C18.4352 13.1592 17.419 13.8279 16.7227 14.7549C16.1098 15.563 15.7604 16.5567 15.6794 17.5643C15.5548 19.0157 15.9185 20.4636 16.4687 21.7978C17.2867 23.7473 18.4873 25.5119 19.8133 27.1487C19.2154 27.8393 18.5666 28.484 17.8723 29.0775C16.7958 29.9885 15.5641 30.7815 14.1688 31.0833C13.0408 31.3365 11.8237 31.2106 10.7892 30.6872C9.57747 30.0833 8.64709 28.946 8.29613 27.6386C8.02781 26.6782 8.08732 25.6413 8.40639 24.7006C8.67179 23.9221 9.03178 23.1804 9.36865 22.4315C11.7071 17.3357 14.1598 12.2931 16.7248 7.30756C17.1074 6.56553 17.4841 5.82006 17.889 5.09026C18.2195 4.50233 18.6039 3.92502 19.1472 3.51217C19.7347 3.05452 20.4614 2.81229 21.2059 2.82594C21.9711 2.81691 22.7317 3.09878 23.317 3.59054C23.8951 4.07061 24.2856 4.72735 24.6363 5.38197C25.429 6.87106 26.1905 8.37742 26.9521 9.88218C29.126 14.1847 31.2147 18.5296 33.2172 22.9144C33.5198 23.5956 33.8437 24.2715 34.0474 24.9904C34.2964 25.877 34.3046 26.8344 34.0464 27.7191ZM9.84553 37.1486C10.5001 37.0004 11.2153 37.4321 11.3854 38.0819C11.5966 38.7469 11.1768 39.52 10.5084 39.7124C9.85536 39.9419 9.07987 39.5429 8.86361 38.8909C8.65851 38.3415 8.87796 37.6784 9.3652 37.3535C9.51048 37.2546 9.67363 37.185 9.84553 37.1486ZM14.2668 41.4411C14.6611 41.0126 15.2166 40.744 15.7889 40.6584C16.1706 40.6211 16.5559 40.6455 16.9299 40.7307C16.9252 41.334 16.9289 41.9366 16.9278 42.5402C16.3409 42.3885 15.7055 42.3571 15.1295 42.5691C14.8166 42.683 14.5346 42.8683 14.3059 43.1103C14.2565 43.1525 14.2684 43.2208 14.2639 43.2795C14.2674 44.9652 14.2613 46.6512 14.2663 48.3366C14.2605 48.4014 14.2761 48.4745 14.2474 48.5353C13.5966 48.5505 12.9449 48.5382 12.2937 48.5406C12.294 45.9708 12.2916 43.4004 12.2953 40.8306C12.8436 40.833 13.3923 40.8284 13.9409 40.8316C14.0615 40.8247 14.1901 40.8866 14.2342 41.0043C14.2775 41.1451 14.2637 41.2952 14.2668 41.4411ZM28.3018 41.448C28.8227 40.9089 29.5778 40.6438 30.3187 40.6422C31.1017 40.6225 31.904 40.8539 32.5089 41.3619C32.9112 41.6775 33.2014 42.114 33.3365 42.6071C33.5087 43.2078 33.4932 43.8388 33.4911 44.4575C33.4916 45.8188 33.4911 47.1804 33.4916 48.542C32.8352 48.5409 32.179 48.5462 31.5225 48.539C31.523 47.1785 31.5225 45.818 31.523 44.457C31.523 43.9514 31.5469 43.406 31.2781 42.9557C31.0908 42.6326 30.7202 42.4716 30.3628 42.4342C29.6822 42.3252 28.9712 42.596 28.5021 43.0922C28.4521 43.1422 28.4093 43.2054 28.4149 43.2809C28.4086 43.4913 28.4404 43.7025 28.4224 43.9132C28.3966 44.1993 28.4367 44.4854 28.4274 44.7723C28.419 45.3133 28.4183 45.8543 28.4253 46.3953C28.3881 47.1108 28.4529 47.8286 28.4101 48.5433C27.7563 48.5412 27.103 48.5428 26.4492 48.5425C26.449 45.9713 26.4444 43.4007 26.4516 40.8298C26.9572 40.8338 27.4638 40.8298 27.9691 40.8314C28.0998 40.8231 28.2428 40.8962 28.2765 41.029C28.3073 41.1656 28.298 41.3077 28.3018 41.448ZM9.12556 48.5422C9.1253 45.9713 9.12158 43.4007 9.12689 40.83C9.77832 40.8316 10.4295 40.8311 11.0806 40.8306C11.0857 43.4012 11.082 45.9718 11.0825 48.542C10.4303 48.542 9.77805 48.5414 9.12556 48.5422ZM7.91224 40.8308C7.39604 40.8298 6.87984 40.8324 6.36311 40.8279C6.22655 40.8271 6.05227 40.8338 5.98559 40.9772C5.92581 41.1247 5.94866 41.2883 5.94334 41.4435C5.51375 40.9862 4.90829 40.7147 4.28715 40.6558C3.32807 40.5697 2.33419 40.8356 1.56401 41.418C0.929585 41.8866 0.460675 42.5643 0.215194 43.3109C0.0969701 43.6608 0.0377254 44.0279 0 44.3948V44.9227C0.0549941 46.0276 0.546487 47.1206 1.40381 47.8329C2.05046 48.3807 2.88148 48.6867 3.72339 48.7401H4.16228C4.82965 48.6952 5.48851 48.4192 5.94388 47.9219C5.94813 48.0778 5.92608 48.2431 5.98452 48.3924C6.04536 48.5133 6.18882 48.5465 6.31342 48.5417C6.8461 48.5404 7.37957 48.5422 7.91277 48.5393C7.91277 45.9705 7.91436 43.4007 7.91224 40.8308ZM5.88304 46.1397C5.48453 46.6169 4.86206 46.899 4.24039 46.8794C3.57408 46.8844 2.88254 46.6291 2.45082 46.1065C2.02973 45.6076 1.90248 44.9137 1.99812 44.2795C2.06958 43.7662 2.33127 43.2739 2.74466 42.9554C3.11952 42.6595 3.59215 42.507 4.06531 42.474C4.77014 42.4124 5.51322 42.7232 5.93723 43.2923C5.96114 44.1302 5.93777 44.9703 5.94839 45.8095C5.94148 45.92 5.97204 46.0531 5.88304 46.1397ZM25.3238 43.0367C25.0204 42.2947 24.4822 41.6496 23.7999 41.2288C23.0972 40.7915 22.2545 40.5938 21.4307 40.6499C20.7801 40.6927 20.1443 40.9703 19.6927 41.4448C19.69 40.0046 19.6927 38.5652 19.6913 37.125C19.0346 37.1252 18.3773 37.122 17.7206 37.1268C17.724 40.9307 17.715 44.7365 17.7254 48.5401C18.2692 48.5414 18.8135 48.5428 19.3576 48.5414C19.4929 48.5521 19.6387 48.4777 19.6759 48.3408C19.7028 48.2016 19.6929 48.0579 19.6937 47.9168C20.1501 48.4245 20.8207 48.7 21.495 48.7407H21.8972C22.9888 48.686 24.0592 48.1743 24.7444 47.3164C25.704 46.1397 25.8913 44.4294 25.3238 43.0367ZM23.0271 46.2816C22.5872 46.69 21.9782 46.8858 21.3837 46.8799C20.7633 46.8943 20.1435 46.6092 19.7506 46.1291C19.702 46.0792 19.686 46.0117 19.69 45.9453C19.6905 45.0627 19.6913 44.1804 19.69 43.2984C20.0673 42.8064 20.6711 42.4998 21.2888 42.4682C21.915 42.4498 22.572 42.6337 23.0316 43.0752C23.4694 43.4814 23.683 44.0906 23.6692 44.6807C23.682 45.2699 23.4625 45.8751 23.0271 46.2816ZM41.528 42.0824C40.6927 41.0187 39.2647 40.482 37.9334 40.681C37.3774 40.7687 36.8505 41.0354 36.4619 41.4445C36.4576 40.0051 36.4619 38.5657 36.4597 37.1258C35.8041 37.125 35.1489 37.1244 34.4938 37.1263C34.4932 40.9305 34.4938 44.7357 34.4938 48.5404C35.0105 48.5443 35.5286 48.5396 36.0453 48.5443C36.181 48.5465 36.3508 48.5356 36.4204 48.3969C36.4807 48.2471 36.4581 48.08 36.4624 47.9224C36.9154 48.4187 37.5713 48.6929 38.235 48.7412H38.6776C39.7573 48.6825 40.8128 48.1785 41.4966 47.3337C42.055 46.6599 42.3563 45.797 42.4063 44.928V44.4123C42.3444 43.5734 42.0612 42.7402 41.528 42.0824ZM39.9934 46.06C39.4735 46.7293 38.5562 46.9782 37.7424 46.8483C37.2469 46.7495 36.7663 46.4819 36.4733 46.0643C36.4406 45.7404 36.4701 45.4129 36.4603 45.0874C36.4672 44.4889 36.4454 43.8884 36.4701 43.291C36.7682 42.88 37.2453 42.6164 37.7363 42.5075C38.6449 42.3396 39.7012 42.6996 40.1605 43.5386C40.5787 44.3151 40.537 45.3528 39.9934 46.06Z" fill="#CBD5E1"/>
</svg>
