<svg width="38" height="49" viewBox="0 0 38 49" fill="none" xmlns="http://www.w3.org/2000/svg">
<path d="M32.1494 45.1116V48.0296H33.0852V46.0868H36.491V48.0296H37.4261V45.1166L32.1494 45.1116ZM32.9809 44.1676H36.5792C37.079 44.0683 37.4506 43.6272 37.5555 43.2005H32.0047C32.1085 43.6274 32.4856 44.0683 32.9809 44.1676ZM29.3152 48.0315C29.787 47.8315 30.0409 47.4855 30.1381 47.0806H25.9409L25.9436 43.2029L25.0027 43.2056V48.0315H29.3152ZM18.0062 44.1546H21.3293C21.8303 44.009 22.251 43.6274 22.3535 43.2043H17.0746V46.0561H21.3952V47.0569L18.0062 47.0596C17.4751 47.2077 17.0247 47.5643 16.8 48.0353L17.0746 48.0303H22.3236V45.108H18.0062V44.1546ZM9.80242 44.1638H13.3995C13.9 44.064 14.2719 43.6234 14.3762 43.1963H8.82574C8.92935 43.6234 9.30675 44.064 9.80242 44.1638ZM9.80242 46.0711H13.3995C13.9 45.9724 14.2719 45.5313 14.3762 45.104H8.82574C8.92935 45.5315 9.30675 45.9724 9.80242 46.0711ZM9.80242 48.031H13.3995C13.9 47.9315 14.2719 47.4905 14.3762 47.0637H8.82574C8.92935 47.4907 9.30675 47.9315 9.80242 48.031ZM0.444336 43.208C0.552471 43.6298 0.917627 44.0608 1.41862 44.1688H2.93278L3.01001 44.1993V48.0202H3.95553V44.1993L4.04143 44.1688H5.55692C6.0635 44.0383 6.4208 43.6298 6.52707 43.208V43.1987H0.444336V43.208Z" fill="#CBD5E1"/>
<path d="M19.0017 33.6614L23.726 7.09124C28.2292 7.09124 29.6496 7.58503 29.8547 9.60058C29.8547 9.60058 32.8756 8.47422 34.3992 6.1866C28.4536 3.43156 22.4797 3.30731 22.4797 3.30731L18.9938 7.55307L19.0017 7.55254L15.5158 3.30664C15.5158 3.30664 9.54169 3.43102 3.59692 6.18607C5.11921 8.47369 8.14126 9.60005 8.14126 9.60005C8.34754 7.58437 9.76622 7.09057 14.2392 7.08737L19.0017 33.6614Z" fill="#CBD5E1"/>
<path d="M18.9998 2.08067C23.806 2.04391 29.3071 2.82416 34.9387 5.27864C35.6914 3.92389 35.8849 3.32515 35.8849 3.32515C29.7287 0.889583 23.9636 0.0560641 18.9991 0.0351562C14.0349 0.0560641 8.27006 0.889717 2.11475 3.32515C2.11475 3.32515 2.38935 4.06266 3.06026 5.27864C8.69074 2.82416 14.1929 2.04391 18.9991 2.08067H18.9998Z" fill="#CBD5E1"/>
</svg>
