<svg width="106" height="36" viewBox="0 0 106 36" fill="none" xmlns="http://www.w3.org/2000/svg">
<rect width="36" height="36" rx="6.75" fill="#2865E9"/>
<path d="M6.80004 22.3194C7.11082 24.085 8.79058 25.2642 10.5519 24.9534C12.3132 24.6419 13.4896 22.9577 13.1795 21.1921C12.8687 19.4265 14.0457 17.7423 15.8071 17.4308C17.5684 17.1194 18.7447 15.4351 18.4346 13.6695C18.1239 11.9039 16.4441 10.7248 14.6828 11.0355C12.9214 11.3463 11.7437 13.0312 12.0545 14.7968C12.3653 16.5624 11.1882 18.2466 9.42691 18.5581C7.66558 18.8695 6.48926 20.5538 6.80004 22.3194Z" fill="white"/>
<path d="M14.7922 22.3189C15.103 24.0845 16.7827 25.2637 18.5441 24.9529C20.3054 24.6415 21.4817 22.9572 21.1717 21.1916C20.8609 19.426 22.0379 17.7418 23.7992 17.4303C25.5606 17.1189 26.7369 15.4347 26.4268 13.6691C26.116 11.9035 24.4363 10.7243 22.6749 11.035C20.9136 11.3465 19.7373 13.0307 20.0474 14.7963C20.3581 16.5619 19.1811 18.2462 17.4198 18.5576C15.6585 18.8691 14.4814 20.5533 14.7922 22.3189Z" fill="white"/>
<path d="M26.0113 25.0147C27.7999 25.0147 29.2499 23.5609 29.2499 21.7676C29.2499 19.9743 27.7999 18.5205 26.0113 18.5205C24.2227 18.5205 22.7727 19.9743 22.7727 21.7676C22.7727 23.5609 24.2227 25.0147 26.0113 25.0147Z" fill="white"/>
<path d="M46.614 9.76136V26.125H49.4585V14.859H49.6103L54.1326 26.0771H56.258L60.7804 14.883H60.9322V26.125H63.7766V9.76136H60.1491L55.2912 21.6186H55.0994L50.2415 9.76136H46.614ZM72.31 26.3647C75.1705 26.3647 77.136 24.9664 77.6474 22.8331L74.9467 22.5295C74.5552 23.5682 73.5964 24.1115 72.35 24.1115C70.4803 24.1115 69.2418 22.881 69.2179 20.7797H77.7672V19.8928C77.7672 15.5861 75.1784 13.6925 72.1582 13.6925C68.6426 13.6925 66.3494 16.2733 66.3494 20.0605C66.3494 23.9118 68.6106 26.3647 72.31 26.3647ZM69.2259 18.8301C69.3137 17.264 70.4723 15.9457 72.1982 15.9457C73.8601 15.9457 74.9787 17.1602 74.9947 18.8301H69.2259ZM86.3426 13.8523H83.9216V10.9119H81.0292V13.8523H79.2873V16.0895H81.0292V22.913C81.0132 25.2221 82.6911 26.3567 84.8644 26.2928C85.6874 26.2688 86.2547 26.109 86.5663 26.0051L86.0789 23.744C85.9191 23.7839 85.5915 23.8558 85.2319 23.8558C84.5048 23.8558 83.9216 23.6001 83.9216 22.4336V16.0895H86.3426V13.8523ZM88.7615 26.125H91.6539V13.8523H88.7615V26.125ZM90.2157 12.1104C91.1346 12.1104 91.8857 11.4073 91.8857 10.5444C91.8857 9.67347 91.1346 8.97035 90.2157 8.97035C89.2889 8.97035 88.5378 9.67347 88.5378 10.5444C88.5378 11.4073 89.2889 12.1104 90.2157 12.1104ZM104.328 17.0962C103.929 15.0188 102.267 13.6925 99.3903 13.6925C96.434 13.6925 94.4205 15.1467 94.4285 17.4158C94.4205 19.2056 95.5231 20.3881 97.8802 20.8755L99.9736 21.315C101.1 21.5627 101.628 22.0181 101.628 22.7132C101.628 23.5522 100.717 24.1834 99.3424 24.1834C98.016 24.1834 97.1531 23.6081 96.9054 22.5055L94.0849 22.7772C94.4445 25.0304 96.3381 26.3647 99.3504 26.3647C102.419 26.3647 104.584 24.7747 104.592 22.4496C104.584 20.6998 103.457 19.6291 101.14 19.1257L99.0467 18.6783C97.8003 18.3986 97.3049 17.9672 97.3129 17.256C97.3049 16.4251 98.2238 15.8498 99.4303 15.8498C100.765 15.8498 101.468 16.5769 101.691 17.3839L104.328 17.0962Z" fill="#1E293B"/>
</svg>
