<svg width="206" height="64" viewBox="0 0 206 64" fill="none" xmlns="http://www.w3.org/2000/svg">
<path d="M203.424 4.7976C204.748 4.7976 205.821 3.72362 205.821 2.3988C205.821 1.07398 204.748 0 203.424 0C202.1 0 201.027 1.07398 201.027 2.3988C201.027 3.72362 202.1 4.7976 203.424 4.7976Z" fill="#7ED3FC"/>
<path d="M203.424 16.6477C204.748 16.6477 205.821 15.5737 205.821 14.2489C205.821 12.9241 204.748 11.8501 203.424 11.8501C202.1 11.8501 201.027 12.9241 201.027 14.2489C201.027 15.5737 202.1 16.6477 203.424 16.6477Z" fill="#7ED3FC"/>
<path d="M203.424 28.4978C204.748 28.4978 205.821 27.4238 205.821 26.099C205.821 24.7742 204.748 23.7002 203.424 23.7002C202.1 23.7002 201.027 24.7742 201.027 26.099C201.027 27.4238 202.1 28.4978 203.424 28.4978Z" fill="#7ED3FC"/>
<path d="M203.424 40.2998C204.748 40.2998 205.821 39.2258 205.821 37.901C205.821 36.5762 204.748 35.5022 203.424 35.5022C202.1 35.5022 201.027 36.5762 201.027 37.901C201.027 39.2258 202.1 40.2998 203.424 40.2998Z" fill="#7ED3FC"/>
<path d="M203.424 52.1499C204.748 52.1499 205.821 51.0759 205.821 49.7511C205.821 48.4263 204.748 47.3523 203.424 47.3523C202.1 47.3523 201.027 48.4263 201.027 49.7511C201.027 51.0759 202.1 52.1499 203.424 52.1499Z" fill="#7ED3FC"/>
<path d="M203.424 64C204.748 64 205.821 62.926 205.821 61.6012C205.821 60.2764 204.748 59.2024 203.424 59.2024C202.1 59.2024 201.027 60.2764 201.027 61.6012C201.027 62.926 202.1 64 203.424 64Z" fill="#7ED3FC"/>
<path d="M191.63 4.7976C192.954 4.7976 194.027 3.72362 194.027 2.3988C194.027 1.07398 192.954 0 191.63 0C190.306 0 189.233 1.07398 189.233 2.3988C189.233 3.72362 190.306 4.7976 191.63 4.7976Z" fill="#7ED3FC"/>
<path d="M191.63 16.6477C192.954 16.6477 194.027 15.5737 194.027 14.2489C194.027 12.9241 192.954 11.8501 191.63 11.8501C190.306 11.8501 189.233 12.9241 189.233 14.2489C189.233 15.5737 190.306 16.6477 191.63 16.6477Z" fill="#7ED3FC"/>
<path d="M191.63 28.4978C192.954 28.4978 194.027 27.4238 194.027 26.099C194.027 24.7742 192.954 23.7002 191.63 23.7002C190.306 23.7002 189.233 24.7742 189.233 26.099C189.233 27.4238 190.306 28.4978 191.63 28.4978Z" fill="#7ED3FC"/>
<path d="M191.63 40.2998C192.954 40.2998 194.027 39.2258 194.027 37.901C194.027 36.5762 192.954 35.5022 191.63 35.5022C190.306 35.5022 189.233 36.5762 189.233 37.901C189.233 39.2258 190.306 40.2998 191.63 40.2998Z" fill="#7ED3FC"/>
<path d="M191.63 52.1499C192.954 52.1499 194.027 51.0759 194.027 49.7511C194.027 48.4263 192.954 47.3523 191.63 47.3523C190.306 47.3523 189.233 48.4263 189.233 49.7511C189.233 51.0759 190.306 52.1499 191.63 52.1499Z" fill="#7ED3FC"/>
<path d="M191.63 64C192.954 64 194.027 62.926 194.027 61.6012C194.027 60.2764 192.954 59.2024 191.63 59.2024C190.306 59.2024 189.233 60.2764 189.233 61.6012C189.233 62.926 190.306 64 191.63 64Z" fill="#7ED3FC"/>
<path d="M179.788 4.7976C181.112 4.7976 182.185 3.72362 182.185 2.3988C182.185 1.07398 181.112 0 179.788 0C178.464 0 177.391 1.07398 177.391 2.3988C177.391 3.72362 178.464 4.7976 179.788 4.7976Z" fill="#7ED3FC"/>
<path d="M179.788 16.6477C181.112 16.6477 182.185 15.5737 182.185 14.2489C182.185 12.9241 181.112 11.8501 179.788 11.8501C178.464 11.8501 177.391 12.9241 177.391 14.2489C177.391 15.5737 178.464 16.6477 179.788 16.6477Z" fill="#7ED3FC"/>
<path d="M179.788 28.4978C181.112 28.4978 182.185 27.4238 182.185 26.099C182.185 24.7742 181.112 23.7002 179.788 23.7002C178.464 23.7002 177.391 24.7742 177.391 26.099C177.391 27.4238 178.464 28.4978 179.788 28.4978Z" fill="#7ED3FC"/>
<path d="M179.788 40.2998C181.112 40.2998 182.185 39.2258 182.185 37.901C182.185 36.5762 181.112 35.5022 179.788 35.5022C178.464 35.5022 177.391 36.5762 177.391 37.901C177.391 39.2258 178.464 40.2998 179.788 40.2998Z" fill="#7ED3FC"/>
<path d="M179.788 52.1499C181.112 52.1499 182.185 51.0759 182.185 49.7511C182.185 48.4263 181.112 47.3523 179.788 47.3523C178.464 47.3523 177.391 48.4263 177.391 49.7511C177.391 51.0759 178.464 52.1499 179.788 52.1499Z" fill="#7ED3FC"/>
<path d="M179.788 64C181.112 64 182.185 62.926 182.185 61.6012C182.185 60.2764 181.112 59.2024 179.788 59.2024C178.464 59.2024 177.391 60.2764 177.391 61.6012C177.391 62.926 178.464 64 179.788 64Z" fill="#7ED3FC"/>
<path d="M167.946 4.7976C169.27 4.7976 170.343 3.72362 170.343 2.3988C170.343 1.07398 169.27 0 167.946 0C166.622 0 165.549 1.07398 165.549 2.3988C165.549 3.72362 166.622 4.7976 167.946 4.7976Z" fill="#7ED3FC"/>
<path d="M167.946 16.6477C169.27 16.6477 170.343 15.5737 170.343 14.2489C170.343 12.9241 169.27 11.8501 167.946 11.8501C166.622 11.8501 165.549 12.9241 165.549 14.2489C165.549 15.5737 166.622 16.6477 167.946 16.6477Z" fill="#7ED3FC"/>
<path d="M167.946 28.4978C169.27 28.4978 170.343 27.4238 170.343 26.099C170.343 24.7742 169.27 23.7002 167.946 23.7002C166.622 23.7002 165.549 24.7742 165.549 26.099C165.549 27.4238 166.622 28.4978 167.946 28.4978Z" fill="#7ED3FC"/>
<path d="M167.946 40.2998C169.27 40.2998 170.343 39.2258 170.343 37.901C170.343 36.5762 169.27 35.5022 167.946 35.5022C166.622 35.5022 165.549 36.5762 165.549 37.901C165.549 39.2258 166.622 40.2998 167.946 40.2998Z" fill="#7ED3FC"/>
<path d="M167.946 52.1499C169.27 52.1499 170.343 51.0759 170.343 49.7511C170.343 48.4263 169.27 47.3523 167.946 47.3523C166.622 47.3523 165.549 48.4263 165.549 49.7511C165.549 51.0759 166.622 52.1499 167.946 52.1499Z" fill="#7ED3FC"/>
<path d="M167.946 64C169.27 64 170.343 62.926 170.343 61.6012C170.343 60.2764 169.27 59.2024 167.946 59.2024C166.622 59.2024 165.549 60.2764 165.549 61.6012C165.549 62.926 166.622 64 167.946 64Z" fill="#7ED3FC"/>
<path d="M156.152 4.7976C157.476 4.7976 158.549 3.72362 158.549 2.3988C158.549 1.07398 157.476 0 156.152 0C154.828 0 153.755 1.07398 153.755 2.3988C153.755 3.72362 154.828 4.7976 156.152 4.7976Z" fill="#7ED3FC"/>
<path d="M156.152 16.6477C157.476 16.6477 158.549 15.5737 158.549 14.2489C158.549 12.9241 157.476 11.8501 156.152 11.8501C154.828 11.8501 153.755 12.9241 153.755 14.2489C153.755 15.5737 154.828 16.6477 156.152 16.6477Z" fill="#7ED3FC"/>
<path d="M156.152 28.4978C157.476 28.4978 158.549 27.4238 158.549 26.099C158.549 24.7742 157.476 23.7002 156.152 23.7002C154.828 23.7002 153.755 24.7742 153.755 26.099C153.755 27.4238 154.828 28.4978 156.152 28.4978Z" fill="#7ED3FC"/>
<path d="M156.152 40.2998C157.476 40.2998 158.549 39.2258 158.549 37.901C158.549 36.5762 157.476 35.5022 156.152 35.5022C154.828 35.5022 153.755 36.5762 153.755 37.901C153.755 39.2258 154.828 40.2998 156.152 40.2998Z" fill="#7ED3FC"/>
<path d="M156.152 52.1499C157.476 52.1499 158.549 51.0759 158.549 49.7511C158.549 48.4263 157.476 47.3523 156.152 47.3523C154.828 47.3523 153.755 48.4263 153.755 49.7511C153.755 51.0759 154.828 52.1499 156.152 52.1499Z" fill="#7ED3FC"/>
<path d="M156.152 64C157.476 64 158.549 62.926 158.549 61.6012C158.549 60.2764 157.476 59.2024 156.152 59.2024C154.828 59.2024 153.755 60.2764 153.755 61.6012C153.755 62.926 154.828 64 156.152 64Z" fill="#7ED3FC"/>
<path d="M144.31 4.7976C145.634 4.7976 146.707 3.72362 146.707 2.3988C146.707 1.07398 145.634 0 144.31 0C142.986 0 141.913 1.07398 141.913 2.3988C141.913 3.72362 142.986 4.7976 144.31 4.7976Z" fill="#7ED3FC"/>
<path d="M144.31 16.6477C145.634 16.6477 146.707 15.5737 146.707 14.2489C146.707 12.9241 145.634 11.8501 144.31 11.8501C142.986 11.8501 141.913 12.9241 141.913 14.2489C141.913 15.5737 142.986 16.6477 144.31 16.6477Z" fill="#7ED3FC"/>
<path d="M144.31 28.4978C145.634 28.4978 146.707 27.4238 146.707 26.099C146.707 24.7742 145.634 23.7002 144.31 23.7002C142.986 23.7002 141.913 24.7742 141.913 26.099C141.913 27.4238 142.986 28.4978 144.31 28.4978Z" fill="#7ED3FC"/>
<path d="M144.31 40.2998C145.634 40.2998 146.707 39.2258 146.707 37.901C146.707 36.5762 145.634 35.5022 144.31 35.5022C142.986 35.5022 141.913 36.5762 141.913 37.901C141.913 39.2258 142.986 40.2998 144.31 40.2998Z" fill="#7ED3FC"/>
<path d="M144.31 52.1499C145.634 52.1499 146.707 51.0759 146.707 49.7511C146.707 48.4263 145.634 47.3523 144.31 47.3523C142.986 47.3523 141.913 48.4263 141.913 49.7511C141.913 51.0759 142.986 52.1499 144.31 52.1499Z" fill="#7ED3FC"/>
<path d="M144.31 64C145.634 64 146.707 62.926 146.707 61.6012C146.707 60.2764 145.634 59.2024 144.31 59.2024C142.986 59.2024 141.913 60.2764 141.913 61.6012C141.913 62.926 142.986 64 144.31 64Z" fill="#7ED3FC"/>
<path d="M132.468 4.7976C133.792 4.7976 134.865 3.72362 134.865 2.3988C134.865 1.07398 133.792 0 132.468 0C131.144 0 130.071 1.07398 130.071 2.3988C130.071 3.72362 131.144 4.7976 132.468 4.7976Z" fill="#7ED3FC"/>
<path d="M132.468 16.6477C133.792 16.6477 134.865 15.5737 134.865 14.2489C134.865 12.9241 133.792 11.8501 132.468 11.8501C131.144 11.8501 130.071 12.9241 130.071 14.2489C130.071 15.5737 131.144 16.6477 132.468 16.6477Z" fill="#7ED3FC"/>
<path d="M132.468 28.4978C133.792 28.4978 134.865 27.4238 134.865 26.099C134.865 24.7742 133.792 23.7002 132.468 23.7002C131.144 23.7002 130.071 24.7742 130.071 26.099C130.071 27.4238 131.144 28.4978 132.468 28.4978Z" fill="#7ED3FC"/>
<path d="M132.468 40.2998C133.792 40.2998 134.865 39.2258 134.865 37.901C134.865 36.5762 133.792 35.5022 132.468 35.5022C131.144 35.5022 130.071 36.5762 130.071 37.901C130.071 39.2258 131.144 40.2998 132.468 40.2998Z" fill="#7ED3FC"/>
<path d="M132.468 52.1499C133.792 52.1499 134.865 51.0759 134.865 49.7511C134.865 48.4263 133.792 47.3523 132.468 47.3523C131.144 47.3523 130.071 48.4263 130.071 49.7511C130.071 51.0759 131.144 52.1499 132.468 52.1499Z" fill="#7ED3FC"/>
<path d="M132.468 64C133.792 64 134.865 62.926 134.865 61.6012C134.865 60.2764 133.792 59.2024 132.468 59.2024C131.144 59.2024 130.071 60.2764 130.071 61.6012C130.071 62.926 131.144 64 132.468 64Z" fill="#7ED3FC"/>
<path d="M120.674 4.7976C121.998 4.7976 123.071 3.72362 123.071 2.3988C123.071 1.07398 121.998 0 120.674 0C119.35 0 118.277 1.07398 118.277 2.3988C118.277 3.72362 119.35 4.7976 120.674 4.7976Z" fill="#7ED3FC"/>
<path d="M120.674 16.6477C121.998 16.6477 123.071 15.5737 123.071 14.2489C123.071 12.9241 121.998 11.8501 120.674 11.8501C119.35 11.8501 118.277 12.9241 118.277 14.2489C118.277 15.5737 119.35 16.6477 120.674 16.6477Z" fill="#7ED3FC"/>
<path d="M120.674 28.4978C121.998 28.4978 123.071 27.4238 123.071 26.099C123.071 24.7742 121.998 23.7002 120.674 23.7002C119.35 23.7002 118.277 24.7742 118.277 26.099C118.277 27.4238 119.35 28.4978 120.674 28.4978Z" fill="#7ED3FC"/>
<path d="M120.674 40.2998C121.998 40.2998 123.071 39.2258 123.071 37.901C123.071 36.5762 121.998 35.5022 120.674 35.5022C119.35 35.5022 118.277 36.5762 118.277 37.901C118.277 39.2258 119.35 40.2998 120.674 40.2998Z" fill="#7ED3FC"/>
<path d="M120.674 52.1499C121.998 52.1499 123.071 51.0759 123.071 49.7511C123.071 48.4263 121.998 47.3523 120.674 47.3523C119.35 47.3523 118.277 48.4263 118.277 49.7511C118.277 51.0759 119.35 52.1499 120.674 52.1499Z" fill="#7ED3FC"/>
<path d="M120.674 64C121.998 64 123.071 62.926 123.071 61.6012C123.071 60.2764 121.998 59.2024 120.674 59.2024C119.35 59.2024 118.277 60.2764 118.277 61.6012C118.277 62.926 119.35 64 120.674 64Z" fill="#7ED3FC"/>
<path d="M108.832 4.7976C110.156 4.7976 111.229 3.72362 111.229 2.3988C111.229 1.07398 110.156 0 108.832 0C107.508 0 106.435 1.07398 106.435 2.3988C106.435 3.72362 107.508 4.7976 108.832 4.7976Z" fill="#7ED3FC"/>
<path d="M108.832 16.6477C110.156 16.6477 111.229 15.5737 111.229 14.2489C111.229 12.9241 110.156 11.8501 108.832 11.8501C107.508 11.8501 106.435 12.9241 106.435 14.2489C106.435 15.5737 107.508 16.6477 108.832 16.6477Z" fill="#7ED3FC"/>
<path d="M108.832 28.4978C110.156 28.4978 111.229 27.4238 111.229 26.099C111.229 24.7742 110.156 23.7002 108.832 23.7002C107.508 23.7002 106.435 24.7742 106.435 26.099C106.435 27.4238 107.508 28.4978 108.832 28.4978Z" fill="#7ED3FC"/>
<path d="M108.832 40.2998C110.156 40.2998 111.229 39.2258 111.229 37.901C111.229 36.5762 110.156 35.5022 108.832 35.5022C107.508 35.5022 106.435 36.5762 106.435 37.901C106.435 39.2258 107.508 40.2998 108.832 40.2998Z" fill="#7ED3FC"/>
<path d="M108.832 52.1499C110.156 52.1499 111.229 51.0759 111.229 49.7511C111.229 48.4263 110.156 47.3523 108.832 47.3523C107.508 47.3523 106.435 48.4263 106.435 49.7511C106.435 51.0759 107.508 52.1499 108.832 52.1499Z" fill="#7ED3FC"/>
<path d="M108.832 64C110.156 64 111.229 62.926 111.229 61.6012C111.229 60.2764 110.156 59.2024 108.832 59.2024C107.508 59.2024 106.435 60.2764 106.435 61.6012C106.435 62.926 107.508 64 108.832 64Z" fill="#7ED3FC"/>
<path d="M96.9896 4.7976C98.3136 4.7976 99.3868 3.72362 99.3868 2.3988C99.3868 1.07398 98.3136 0 96.9896 0C95.6657 0 94.5925 1.07398 94.5925 2.3988C94.5925 3.72362 95.6657 4.7976 96.9896 4.7976Z" fill="#7ED3FC"/>
<path d="M96.9896 16.6477C98.3136 16.6477 99.3868 15.5737 99.3868 14.2489C99.3868 12.9241 98.3136 11.8501 96.9896 11.8501C95.6657 11.8501 94.5925 12.9241 94.5925 14.2489C94.5925 15.5737 95.6657 16.6477 96.9896 16.6477Z" fill="#7ED3FC"/>
<path d="M96.9896 28.4978C98.3136 28.4978 99.3868 27.4238 99.3868 26.099C99.3868 24.7742 98.3136 23.7002 96.9896 23.7002C95.6657 23.7002 94.5925 24.7742 94.5925 26.099C94.5925 27.4238 95.6657 28.4978 96.9896 28.4978Z" fill="#7ED3FC"/>
<path d="M96.9896 40.2998C98.3136 40.2998 99.3868 39.2258 99.3868 37.901C99.3868 36.5762 98.3136 35.5022 96.9896 35.5022C95.6657 35.5022 94.5925 36.5762 94.5925 37.901C94.5925 39.2258 95.6657 40.2998 96.9896 40.2998Z" fill="#7ED3FC"/>
<path d="M96.9896 52.1499C98.3136 52.1499 99.3868 51.0759 99.3868 49.7511C99.3868 48.4263 98.3136 47.3523 96.9896 47.3523C95.6657 47.3523 94.5925 48.4263 94.5925 49.7511C94.5925 51.0759 95.6657 52.1499 96.9896 52.1499Z" fill="#7ED3FC"/>
<path d="M96.9896 64C98.3136 64 99.3868 62.926 99.3868 61.6012C99.3868 60.2764 98.3136 59.2024 96.9896 59.2024C95.6657 59.2024 94.5925 60.2764 94.5925 61.6012C94.5925 62.926 95.6657 64 96.9896 64Z" fill="#7ED3FC"/>
<path d="M85.1958 4.7976C86.5197 4.7976 87.5929 3.72362 87.5929 2.3988C87.5929 1.07398 86.5197 0 85.1958 0C83.8718 0 82.7986 1.07398 82.7986 2.3988C82.7986 3.72362 83.8718 4.7976 85.1958 4.7976Z" fill="#7ED3FC"/>
<path d="M85.1958 16.6477C86.5197 16.6477 87.5929 15.5737 87.5929 14.2489C87.5929 12.9241 86.5197 11.8501 85.1958 11.8501C83.8718 11.8501 82.7986 12.9241 82.7986 14.2489C82.7986 15.5737 83.8718 16.6477 85.1958 16.6477Z" fill="#7ED3FC"/>
<path d="M85.1958 28.4978C86.5197 28.4978 87.5929 27.4238 87.5929 26.099C87.5929 24.7742 86.5197 23.7002 85.1958 23.7002C83.8718 23.7002 82.7986 24.7742 82.7986 26.099C82.7986 27.4238 83.8718 28.4978 85.1958 28.4978Z" fill="#7ED3FC"/>
<path d="M85.1958 40.2998C86.5197 40.2998 87.5929 39.2258 87.5929 37.901C87.5929 36.5762 86.5197 35.5022 85.1958 35.5022C83.8718 35.5022 82.7986 36.5762 82.7986 37.901C82.7986 39.2258 83.8718 40.2998 85.1958 40.2998Z" fill="#7ED3FC"/>
<path d="M85.1958 52.1499C86.5197 52.1499 87.5929 51.0759 87.5929 49.7511C87.5929 48.4263 86.5197 47.3523 85.1958 47.3523C83.8718 47.3523 82.7986 48.4263 82.7986 49.7511C82.7986 51.0759 83.8718 52.1499 85.1958 52.1499Z" fill="#7ED3FC"/>
<path d="M85.1958 64C86.5197 64 87.5929 62.926 87.5929 61.6012C87.5929 60.2764 86.5197 59.2024 85.1958 59.2024C83.8718 59.2024 82.7986 60.2764 82.7986 61.6012C82.7986 62.926 83.8718 64 85.1958 64Z" fill="#7ED3FC"/>
<path d="M73.3535 4.7976C74.6774 4.7976 75.7506 3.72362 75.7506 2.3988C75.7506 1.07398 74.6774 0 73.3535 0C72.0296 0 70.9563 1.07398 70.9563 2.3988C70.9563 3.72362 72.0296 4.7976 73.3535 4.7976Z" fill="#7ED3FC"/>
<path d="M73.3535 16.6477C74.6774 16.6477 75.7506 15.5737 75.7506 14.2489C75.7506 12.9241 74.6774 11.8501 73.3535 11.8501C72.0296 11.8501 70.9563 12.9241 70.9563 14.2489C70.9563 15.5737 72.0296 16.6477 73.3535 16.6477Z" fill="#7ED3FC"/>
<path d="M73.3535 28.4978C74.6774 28.4978 75.7506 27.4238 75.7506 26.099C75.7506 24.7742 74.6774 23.7002 73.3535 23.7002C72.0296 23.7002 70.9563 24.7742 70.9563 26.099C70.9563 27.4238 72.0296 28.4978 73.3535 28.4978Z" fill="#7ED3FC"/>
<path d="M73.3535 40.2998C74.6774 40.2998 75.7506 39.2258 75.7506 37.901C75.7506 36.5762 74.6774 35.5022 73.3535 35.5022C72.0296 35.5022 70.9563 36.5762 70.9563 37.901C70.9563 39.2258 72.0296 40.2998 73.3535 40.2998Z" fill="#7ED3FC"/>
<path d="M73.3535 52.1499C74.6774 52.1499 75.7506 51.0759 75.7506 49.7511C75.7506 48.4263 74.6774 47.3523 73.3535 47.3523C72.0296 47.3523 70.9563 48.4263 70.9563 49.7511C70.9563 51.0759 72.0296 52.1499 73.3535 52.1499Z" fill="#7ED3FC"/>
<path d="M73.3535 64C74.6774 64 75.7506 62.926 75.7506 61.6012C75.7506 60.2764 74.6774 59.2024 73.3535 59.2024C72.0296 59.2024 70.9563 60.2764 70.9563 61.6012C70.9563 62.926 72.0296 64 73.3535 64Z" fill="#7ED3FC"/>
<path d="M61.5115 4.7976C62.8354 4.7976 63.9087 3.72362 63.9087 2.3988C63.9087 1.07398 62.8354 0 61.5115 0C60.1876 0 59.1143 1.07398 59.1143 2.3988C59.1143 3.72362 60.1876 4.7976 61.5115 4.7976Z" fill="#7ED3FC"/>
<path d="M61.5115 16.6477C62.8354 16.6477 63.9087 15.5737 63.9087 14.2489C63.9087 12.9241 62.8354 11.8501 61.5115 11.8501C60.1876 11.8501 59.1143 12.9241 59.1143 14.2489C59.1143 15.5737 60.1876 16.6477 61.5115 16.6477Z" fill="#7ED3FC"/>
<path d="M61.5115 28.4978C62.8354 28.4978 63.9087 27.4238 63.9087 26.099C63.9087 24.7742 62.8354 23.7002 61.5115 23.7002C60.1876 23.7002 59.1143 24.7742 59.1143 26.099C59.1143 27.4238 60.1876 28.4978 61.5115 28.4978Z" fill="#7ED3FC"/>
<path d="M61.5115 40.2998C62.8354 40.2998 63.9087 39.2258 63.9087 37.901C63.9087 36.5762 62.8354 35.5022 61.5115 35.5022C60.1876 35.5022 59.1143 36.5762 59.1143 37.901C59.1143 39.2258 60.1876 40.2998 61.5115 40.2998Z" fill="#7ED3FC"/>
<path d="M61.5115 52.1499C62.8354 52.1499 63.9087 51.0759 63.9087 49.7511C63.9087 48.4263 62.8354 47.3523 61.5115 47.3523C60.1876 47.3523 59.1143 48.4263 59.1143 49.7511C59.1143 51.0759 60.1876 52.1499 61.5115 52.1499Z" fill="#7ED3FC"/>
<path d="M61.5115 64C62.8354 64 63.9087 62.926 63.9087 61.6012C63.9087 60.2764 62.8354 59.2024 61.5115 59.2024C60.1876 59.2024 59.1143 60.2764 59.1143 61.6012C59.1143 62.926 60.1876 64 61.5115 64Z" fill="#7ED3FC"/>
<path d="M49.7174 4.7976C51.0414 4.7976 52.1146 3.72362 52.1146 2.3988C52.1146 1.07398 51.0414 0 49.7174 0C48.3935 0 47.3203 1.07398 47.3203 2.3988C47.3203 3.72362 48.3935 4.7976 49.7174 4.7976Z" fill="#7ED3FC"/>
<path d="M49.7174 16.6477C51.0414 16.6477 52.1146 15.5737 52.1146 14.2489C52.1146 12.9241 51.0414 11.8501 49.7174 11.8501C48.3935 11.8501 47.3203 12.9241 47.3203 14.2489C47.3203 15.5737 48.3935 16.6477 49.7174 16.6477Z" fill="#7ED3FC"/>
<path d="M49.7174 28.4978C51.0414 28.4978 52.1146 27.4238 52.1146 26.099C52.1146 24.7742 51.0414 23.7002 49.7174 23.7002C48.3935 23.7002 47.3203 24.7742 47.3203 26.099C47.3203 27.4238 48.3935 28.4978 49.7174 28.4978Z" fill="#7ED3FC"/>
<path d="M49.7174 40.2998C51.0414 40.2998 52.1146 39.2258 52.1146 37.901C52.1146 36.5762 51.0414 35.5022 49.7174 35.5022C48.3935 35.5022 47.3203 36.5762 47.3203 37.901C47.3203 39.2258 48.3935 40.2998 49.7174 40.2998Z" fill="#7ED3FC"/>
<path d="M49.7174 52.1499C51.0414 52.1499 52.1146 51.0759 52.1146 49.7511C52.1146 48.4263 51.0414 47.3523 49.7174 47.3523C48.3935 47.3523 47.3203 48.4263 47.3203 49.7511C47.3203 51.0759 48.3935 52.1499 49.7174 52.1499Z" fill="#7ED3FC"/>
<path d="M49.7174 64C51.0414 64 52.1146 62.926 52.1146 61.6012C52.1146 60.2764 51.0414 59.2024 49.7174 59.2024C48.3935 59.2024 47.3203 60.2764 47.3203 61.6012C47.3203 62.926 48.3935 64 49.7174 64Z" fill="#7ED3FC"/>
<path d="M37.8755 4.7976C39.1994 4.7976 40.2727 3.72362 40.2727 2.3988C40.2727 1.07398 39.1994 0 37.8755 0C36.5516 0 35.4783 1.07398 35.4783 2.3988C35.4783 3.72362 36.5516 4.7976 37.8755 4.7976Z" fill="#7ED3FC"/>
<path d="M37.8755 16.6477C39.1994 16.6477 40.2727 15.5737 40.2727 14.2489C40.2727 12.9241 39.1994 11.8501 37.8755 11.8501C36.5516 11.8501 35.4783 12.9241 35.4783 14.2489C35.4783 15.5737 36.5516 16.6477 37.8755 16.6477Z" fill="#7ED3FC"/>
<path d="M37.8755 28.4978C39.1994 28.4978 40.2727 27.4238 40.2727 26.099C40.2727 24.7742 39.1994 23.7002 37.8755 23.7002C36.5516 23.7002 35.4783 24.7742 35.4783 26.099C35.4783 27.4238 36.5516 28.4978 37.8755 28.4978Z" fill="#7ED3FC"/>
<path d="M37.8755 40.2998C39.1994 40.2998 40.2727 39.2258 40.2727 37.901C40.2727 36.5762 39.1994 35.5022 37.8755 35.5022C36.5516 35.5022 35.4783 36.5762 35.4783 37.901C35.4783 39.2258 36.5516 40.2998 37.8755 40.2998Z" fill="#7ED3FC"/>
<path d="M37.8755 52.1499C39.1994 52.1499 40.2727 51.0759 40.2727 49.7511C40.2727 48.4263 39.1994 47.3523 37.8755 47.3523C36.5516 47.3523 35.4783 48.4263 35.4783 49.7511C35.4783 51.0759 36.5516 52.1499 37.8755 52.1499Z" fill="#7ED3FC"/>
<path d="M37.8755 64C39.1994 64 40.2727 62.926 40.2727 61.6012C40.2727 60.2764 39.1994 59.2024 37.8755 59.2024C36.5516 59.2024 35.4783 60.2764 35.4783 61.6012C35.4783 62.926 36.5516 64 37.8755 64Z" fill="#7ED3FC"/>
<path d="M26.0333 4.7976C27.3573 4.7976 28.4305 3.72362 28.4305 2.3988C28.4305 1.07398 27.3573 0 26.0333 0C24.7094 0 23.6362 1.07398 23.6362 2.3988C23.6362 3.72362 24.7094 4.7976 26.0333 4.7976Z" fill="#7ED3FC"/>
<path d="M26.0333 16.6477C27.3573 16.6477 28.4305 15.5737 28.4305 14.2489C28.4305 12.9241 27.3573 11.8501 26.0333 11.8501C24.7094 11.8501 23.6362 12.9241 23.6362 14.2489C23.6362 15.5737 24.7094 16.6477 26.0333 16.6477Z" fill="#7ED3FC"/>
<path d="M26.0333 28.4978C27.3573 28.4978 28.4305 27.4238 28.4305 26.099C28.4305 24.7742 27.3573 23.7002 26.0333 23.7002C24.7094 23.7002 23.6362 24.7742 23.6362 26.099C23.6362 27.4238 24.7094 28.4978 26.0333 28.4978Z" fill="#7ED3FC"/>
<path d="M26.0333 40.2998C27.3573 40.2998 28.4305 39.2258 28.4305 37.901C28.4305 36.5762 27.3573 35.5022 26.0333 35.5022C24.7094 35.5022 23.6362 36.5762 23.6362 37.901C23.6362 39.2258 24.7094 40.2998 26.0333 40.2998Z" fill="#7ED3FC"/>
<path d="M26.0333 52.1499C27.3573 52.1499 28.4305 51.0759 28.4305 49.7511C28.4305 48.4263 27.3573 47.3523 26.0333 47.3523C24.7094 47.3523 23.6362 48.4263 23.6362 49.7511C23.6362 51.0759 24.7094 52.1499 26.0333 52.1499Z" fill="#7ED3FC"/>
<path d="M26.0333 64C27.3573 64 28.4305 62.926 28.4305 61.6012C28.4305 60.2764 27.3573 59.2024 26.0333 59.2024C24.7094 59.2024 23.6362 60.2764 23.6362 61.6012C23.6362 62.926 24.7094 64 26.0333 64Z" fill="#7ED3FC"/>
<path d="M14.2392 16.6477C15.5631 16.6477 16.6363 15.5737 16.6363 14.2489C16.6363 12.9241 15.5631 11.8501 14.2392 11.8501C12.9152 11.8501 11.842 12.9241 11.842 14.2489C11.842 15.5737 12.9152 16.6477 14.2392 16.6477Z" fill="#7ED3FC"/>
<path d="M14.2392 28.4978C15.5631 28.4978 16.6363 27.4238 16.6363 26.099C16.6363 24.7742 15.5631 23.7002 14.2392 23.7002C12.9152 23.7002 11.842 24.7742 11.842 26.099C11.842 27.4238 12.9152 28.4978 14.2392 28.4978Z" fill="#7ED3FC"/>
<path d="M14.2392 40.2998C15.5631 40.2998 16.6363 39.2258 16.6363 37.901C16.6363 36.5762 15.5631 35.5022 14.2392 35.5022C12.9152 35.5022 11.842 36.5762 11.842 37.901C11.842 39.2258 12.9152 40.2998 14.2392 40.2998Z" fill="#7ED3FC"/>
<path d="M14.2392 52.1499C15.5631 52.1499 16.6363 51.0759 16.6363 49.7511C16.6363 48.4263 15.5631 47.3523 14.2392 47.3523C12.9152 47.3523 11.842 48.4263 11.842 49.7511C11.842 51.0759 12.9152 52.1499 14.2392 52.1499Z" fill="#7ED3FC"/>
<path d="M2.39718 28.4978C3.7211 28.4978 4.79435 27.4238 4.79435 26.099C4.79435 24.7742 3.7211 23.7002 2.39718 23.7002C1.07325 23.7002 0 24.7742 0 26.099C0 27.4238 1.07325 28.4978 2.39718 28.4978Z" fill="#7ED3FC"/>
<path d="M2.39718 40.2998C3.7211 40.2998 4.79435 39.2258 4.79435 37.901C4.79435 36.5762 3.7211 35.5022 2.39718 35.5022C1.07325 35.5022 0 36.5762 0 37.901C0 39.2258 1.07325 40.2998 2.39718 40.2998Z" fill="#7ED3FC"/>
</svg>
