<svg width="142" height="48" viewBox="0 0 142 48" fill="none" xmlns="http://www.w3.org/2000/svg">
<rect x="0.410889" width="48" height="48" rx="9" fill="#2865E9"/>
<path d="M9.47752 29.7591C9.8919 32.1132 12.1316 33.6855 14.48 33.2711C16.8285 32.8559 18.3969 30.6102 17.9835 28.2561C17.5691 25.9019 19.1385 23.6563 21.4869 23.241C23.8353 22.8258 25.4038 20.5801 24.9903 18.226C24.576 15.8718 22.3363 14.2996 19.9878 14.714C17.6394 15.1283 16.0691 17.3749 16.4835 19.729C16.8978 22.0831 15.3285 24.3288 12.98 24.744C10.6316 25.1593 9.06315 27.405 9.47752 29.7591Z" fill="white"/>
<path d="M20.1337 29.7584C20.5481 32.1125 22.7878 33.6847 25.1362 33.2704C27.4847 32.8551 29.0531 30.6095 28.6397 28.2553C28.2253 25.9012 29.7947 23.6556 32.1431 23.2403C34.4915 22.825 36.06 20.5794 35.6465 18.2253C35.2322 15.8711 32.9925 14.2989 30.6441 14.7132C28.2956 15.1285 26.7272 17.3741 27.1406 19.7283C27.555 22.0824 25.9856 24.328 23.6372 24.7433C21.2887 25.1586 19.7194 27.4042 20.1337 29.7584Z" fill="white"/>
<path d="M35.0925 33.3526C37.4774 33.3526 39.4107 31.4142 39.4107 29.0231C39.4107 26.632 37.4774 24.6936 35.0925 24.6936C32.7077 24.6936 30.7744 26.632 30.7744 29.0231C30.7744 31.4142 32.7077 33.3526 35.0925 33.3526Z" fill="white"/>
<path d="M62.5629 12.6818V34.5H66.3555V19.4787H66.5579L72.5877 34.4361H75.4215L81.4514 19.5107H81.6538V34.5H85.4464V12.6818H80.6098L74.1325 28.4915H73.8768L67.3995 12.6818H62.5629ZM96.8242 34.8196C100.638 34.8196 103.259 32.9553 103.941 30.1108L100.34 29.706C99.8178 31.0909 98.5394 31.8153 96.8775 31.8153C94.3846 31.8153 92.7333 30.1747 92.7014 27.3729H104.101V26.1903C104.101 20.4482 100.649 17.9233 96.6218 17.9233C91.9343 17.9233 88.8768 21.3643 88.8768 26.4141C88.8768 31.549 91.8917 34.8196 96.8242 34.8196ZM92.712 24.7734C92.8292 22.6854 94.374 20.9276 96.6751 20.9276C98.891 20.9276 100.382 22.5469 100.404 24.7734H92.712ZM115.534 18.1364H112.306V14.2159H108.45V18.1364H106.127V21.1193H108.45V30.2173C108.428 33.2962 110.666 34.8089 113.563 34.7237C114.661 34.6918 115.417 34.4787 115.833 34.3402L115.183 31.3253C114.97 31.3786 114.533 31.4744 114.053 31.4744C113.084 31.4744 112.306 31.1335 112.306 29.5781V21.1193H115.534V18.1364ZM118.76 34.5H122.616V18.1364H118.76V34.5ZM120.699 15.8139C121.924 15.8139 122.925 14.8764 122.925 13.7259C122.925 12.5646 121.924 11.6271 120.699 11.6271C119.463 11.6271 118.461 12.5646 118.461 13.7259C118.461 14.8764 119.463 15.8139 120.699 15.8139ZM139.515 22.4616C138.982 19.6918 136.767 17.9233 132.931 17.9233C128.99 17.9233 126.305 19.8622 126.316 22.8878C126.305 25.2741 127.775 26.8509 130.918 27.5007L133.709 28.0866C135.211 28.4169 135.914 29.0241 135.914 29.951C135.914 31.0696 134.7 31.9112 132.867 31.9112C131.099 31.9112 129.948 31.1442 129.618 29.674L125.857 30.0362C126.337 33.0405 128.862 34.8196 132.878 34.8196C136.969 34.8196 139.856 32.6996 139.867 29.5994C139.856 27.2663 138.354 25.8388 135.264 25.1676L132.473 24.571C130.811 24.1982 130.151 23.6229 130.161 22.6747C130.151 21.5668 131.376 20.7997 132.985 20.7997C134.764 20.7997 135.701 21.7692 135.999 22.8452L139.515 22.4616Z" fill="white"/>
</svg>
