<svg width="32" height="32" viewBox="0 0 32 32" fill="none" xmlns="http://www.w3.org/2000/svg">
<path d="M15.4477 3.44755C14.9476 3.94765 14.6667 4.62593 14.6667 5.33317V6.6665C14.6667 7.02013 14.5262 7.35926 14.2762 7.60931C14.0261 7.85936 13.687 7.99984 13.3334 7.99984H9.33335C8.97973 7.99984 8.64059 8.14031 8.39054 8.39036C8.1405 8.64041 8.00002 8.97955 8.00002 9.33317V13.3332C8.00002 13.6868 7.85954 14.0259 7.6095 14.276C7.35945 14.526 7.02031 14.6665 6.66669 14.6665H5.33335C4.62611 14.6665 3.94783 14.9475 3.44774 15.4476C2.94764 15.9476 2.66669 16.6259 2.66669 17.3332C2.66669 18.0404 2.94764 18.7187 3.44774 19.2188C3.94783 19.7189 4.62611 19.9998 5.33335 19.9998H6.66669C7.02031 19.9998 7.35945 20.1403 7.6095 20.3904C7.85954 20.6404 8.00002 20.9795 8.00002 21.3332V25.3332C8.00002 25.6868 8.1405 26.0259 8.39054 26.276C8.64059 26.526 8.97973 26.6665 9.33335 26.6665H13.3334C13.687 26.6665 14.0261 26.526 14.2762 26.276C14.5262 26.0259 14.6667 25.6868 14.6667 25.3332V23.9998C14.6667 23.2926 14.9476 22.6143 15.4477 22.1142C15.9478 21.6141 16.6261 21.3332 17.3334 21.3332C18.0406 21.3332 18.7189 21.6141 19.219 22.1142C19.7191 22.6143 20 23.2926 20 23.9998V25.3332C20 25.6868 20.1405 26.0259 20.3905 26.276C20.6406 26.526 20.9797 26.6665 21.3334 26.6665H25.3334C25.687 26.6665 26.0261 26.526 26.2762 26.276C26.5262 26.0259 26.6667 25.6868 26.6667 25.3332V21.3332C26.6667 20.9795 26.5262 20.6404 26.2762 20.3904C26.0261 20.1403 25.687 19.9998 25.3334 19.9998H24C23.2928 19.9998 22.6145 19.7189 22.1144 19.2188C21.6143 18.7187 21.3334 18.0404 21.3334 17.3332C21.3334 16.6259 21.6143 15.9476 22.1144 15.4476C22.6145 14.9475 23.2928 14.6665 24 14.6665H25.3334C25.687 14.6665 26.0261 14.526 26.2762 14.276C26.5262 14.0259 26.6667 13.6868 26.6667 13.3332V9.33317C26.6667 8.97955 26.5262 8.64041 26.2762 8.39036C26.0261 8.14031 25.687 7.99984 25.3334 7.99984H21.3334C20.9797 7.99984 20.6406 7.85936 20.3905 7.60931C20.1405 7.35926 20 7.02013 20 6.6665V5.33317C20 4.62593 19.7191 3.94765 19.219 3.44755C18.7189 2.94746 18.0406 2.6665 17.3334 2.6665C16.6261 2.6665 15.9478 2.94746 15.4477 3.44755Z" stroke="#2865E9" stroke-width="2.66667" stroke-linecap="round" stroke-linejoin="round"/>
</svg>
