<svg width="32" height="32" viewBox="0 0 32 32" fill="none" xmlns="http://www.w3.org/2000/svg">
<path d="M18.6666 13.3333H25.0186C25.4731 13.3333 25.9201 13.4495 26.317 13.6708C26.714 13.8921 27.0478 14.2112 27.2868 14.5978C27.5258 14.9844 27.662 15.4256 27.6825 15.8797C27.703 16.3337 27.6071 16.7854 27.404 17.192L22.7373 26.5253C22.5158 26.9686 22.1751 27.3414 21.7536 27.6019C21.332 27.8623 20.8462 28.0002 20.3506 28H14.9947C14.7773 28 14.56 27.9733 14.348 27.92L9.33333 26.6666M18.6666 13.3333V6.66666C18.6666 5.95942 18.3857 5.28114 17.8856 4.78105C17.3855 4.28095 16.7072 4 16 4H15.8733C15.2066 4 14.6667 4.54 14.6667 5.20666C14.6667 6.15866 14.3853 7.08933 13.856 7.88133L9.33333 14.6666V26.6666M18.6666 13.3333H16M9.33333 26.6666H6.66666C5.95942 26.6666 5.28114 26.3857 4.78105 25.8856C4.28095 25.3855 4 24.7072 4 24V16C4 15.2927 4.28095 14.6145 4.78105 14.1144C5.28114 13.6143 5.95942 13.3333 6.66666 13.3333H9.99999" stroke="#2865E9" stroke-width="2.66666" stroke-linecap="round" stroke-linejoin="round"/>
</svg>
