<svg width="159" height="159" viewBox="0 0 159 159" fill="none" xmlns="http://www.w3.org/2000/svg">
<path d="M76.7558 17.131C74.271 19.6158 72.875 22.986 72.875 26.5001V33.1251C72.875 34.8822 72.177 36.5673 70.9346 37.8097C69.6922 39.0521 68.0071 39.7501 66.25 39.7501H46.375C44.6179 39.7501 42.9328 40.4481 41.6904 41.6905C40.448 42.933 39.75 44.6181 39.75 46.3751V66.2501C39.75 68.0072 39.052 69.6923 37.8096 70.9347C36.5672 72.1771 34.8821 72.8751 33.125 72.8751H26.5C22.9859 72.8751 19.6157 74.2711 17.1308 76.756C14.646 79.2408 13.25 82.611 13.25 86.1251C13.25 89.6392 14.646 93.0094 17.1308 95.4943C19.6157 97.9791 22.9859 99.3751 26.5 99.3751H33.125C34.8821 99.3751 36.5672 100.073 37.8096 101.316C39.052 102.558 39.75 104.243 39.75 106V125.875C39.75 127.632 40.448 129.317 41.6904 130.56C42.9328 131.802 44.6179 132.5 46.375 132.5H66.25C68.0071 132.5 69.6922 131.802 70.9346 130.56C72.177 129.317 72.875 127.632 72.875 125.875V119.25C72.875 115.736 74.271 112.366 76.7558 109.881C79.2407 107.396 82.6109 106 86.125 106C89.6391 106 93.0093 107.396 95.4942 109.881C97.979 112.366 99.375 115.736 99.375 119.25V125.875C99.375 127.632 100.073 129.317 101.315 130.56C102.558 131.802 104.243 132.5 106 132.5H125.875C127.632 132.5 129.317 131.802 130.56 130.56C131.802 129.317 132.5 127.632 132.5 125.875V106C132.5 104.243 131.802 102.558 130.56 101.316C129.317 100.073 127.632 99.3751 125.875 99.3751H119.25C115.736 99.3751 112.366 97.9791 109.881 95.4943C107.396 93.0094 106 89.6392 106 86.1251C106 82.611 107.396 79.2408 109.881 76.756C112.366 74.2711 115.736 72.8751 119.25 72.8751H125.875C127.632 72.8751 129.317 72.1771 130.56 70.9347C131.802 69.6923 132.5 68.0072 132.5 66.2501V46.3751C132.5 44.6181 131.802 42.933 130.56 41.6905C129.317 40.4481 127.632 39.7501 125.875 39.7501H106C104.243 39.7501 102.558 39.0521 101.315 37.8097C100.073 36.5673 99.375 34.8822 99.375 33.1251V26.5001C99.375 22.986 97.979 19.6158 95.4942 17.131C93.0093 14.6461 89.6391 13.2501 86.125 13.2501C82.6109 13.2501 79.2407 14.6461 76.7558 17.131Z" stroke="url(#paint0_linear)" stroke-opacity="0.15" stroke-width="13.25" stroke-linecap="round" stroke-linejoin="round"/>
<defs>
<linearGradient id="paint0_linear" x1="72.875" y1="-31.1249" x2="72.875" y2="123.875" gradientUnits="userSpaceOnUse">
<stop stop-color="#17A34A"/>
<stop offset="1" stop-color="#17A34A" stop-opacity="0"/>
</linearGradient>
</defs>
</svg>
