<svg width="131" height="131" viewBox="0 0 131 131" fill="none" xmlns="http://www.w3.org/2000/svg">
<path d="M41.9271 60.3786C38.7006 59.4496 35.4742 58.9783 32.3357 58.9783C27.4891 58.9783 23.445 60.0859 20.3093 61.4422C23.3324 50.3748 30.5946 31.2783 45.0615 29.1278C46.4013 28.9285 47.4992 27.9597 47.8647 26.6557L51.0266 15.3465C51.2932 14.3901 51.1351 13.3663 50.5896 12.5363C50.0441 11.7063 49.1674 11.1526 48.1849 11.0179C47.1172 10.8722 46.0289 10.798 44.9502 10.798C27.5853 10.798 10.388 28.923 3.13126 54.8751C-1.12855 70.1006 -2.37763 92.9911 8.11523 107.399C13.9869 115.461 22.5532 119.766 33.5765 120.196C33.6218 120.198 33.6658 120.199 33.7112 120.199C47.3123 120.199 59.373 111.039 63.042 97.9257C65.2337 90.0862 64.243 81.8647 60.2497 74.77C56.2991 67.755 49.7926 62.6418 41.9271 60.3786Z" fill="#F9FAFB"/>
<path d="M127.067 74.7714C123.116 67.755 116.61 62.6418 108.744 60.3786C105.518 59.4496 102.291 58.9783 99.1541 58.9783C94.3076 58.9783 90.2621 60.0859 87.1264 61.4422C90.1495 50.3748 97.4117 31.2783 111.88 29.1278C113.22 28.9285 114.316 27.9597 114.683 26.6557L117.845 15.3465C118.112 14.3901 117.954 13.3663 117.408 12.5363C116.864 11.7063 115.987 11.1526 115.003 11.0179C113.937 10.8722 112.849 10.798 111.769 10.798C94.4038 10.798 77.2065 28.923 69.9484 54.8751C65.6899 70.1006 64.4409 92.9911 74.9351 107.402C80.8054 115.463 89.3731 119.769 100.395 120.198C100.44 120.199 100.484 120.201 100.531 120.201C114.131 120.201 126.193 111.041 129.862 97.9271C132.051 90.0876 131.059 81.8647 127.067 74.7714Z" fill="#F9FAFB"/>
</svg>
