<svg width="125" height="48" viewBox="0 0 125 48" fill="none" xmlns="http://www.w3.org/2000/svg">
<rect x="29.1501" y="19.1666" width="13.5529" height="13.5529" transform="rotate(-135 29.1501 19.1666)" fill="#10B981"/>
<rect x="19.5668" y="28.75" width="13.5529" height="13.5529" transform="rotate(-135 19.5668 28.75)" fill="#34D399"/>
<rect x="38.7335" y="47.9166" width="13.5529" height="13.5529" transform="rotate(-135 38.7335 47.9166)" fill="#34D399"/>
<rect x="19.5668" y="47.9166" width="13.5529" height="13.5529" transform="rotate(-135 19.5668 47.9166)" fill="#34D399"/>
<rect x="38.7335" y="28.75" width="13.5529" height="13.5529" transform="rotate(-135 38.7335 28.75)" fill="#34D399"/>
<path d="M48.3169 38.3334L38.7335 28.75L48.3169 19.1666V29.5486V38.3334Z" fill="#10B981"/>
<path d="M9.98337 19.1666L19.5667 28.75L9.98337 38.3334V27.9514V19.1666Z" fill="#10B981"/>
<path d="M65.5589 35L73.7509 12.6H78.3589L86.5509 35H82.1989L80.4069 29.816H71.6709L69.8469 35H65.5589ZM72.7909 26.616H79.2869L76.0229 17.304L72.7909 26.616ZM94.8499 35C93.1859 35 91.8526 34.5947 90.8499 33.784C89.8473 32.9733 89.3459 31.5333 89.3459 29.464V22.552H86.6259V19.128H89.3459L89.8259 14.872H93.4419V19.128H97.7299V22.552H93.4419V29.496C93.4419 30.264 93.6019 30.7973 93.9219 31.096C94.2633 31.3733 94.8393 31.512 95.6499 31.512H97.6339V35H94.8499ZM103.455 16.664C102.708 16.664 102.089 16.44 101.599 15.992C101.129 15.544 100.895 14.9787 100.895 14.296C100.895 13.6133 101.129 13.0587 101.599 12.632C102.089 12.184 102.708 11.96 103.455 11.96C104.201 11.96 104.809 12.184 105.279 12.632C105.769 13.0587 106.015 13.6133 106.015 14.296C106.015 14.9787 105.769 15.544 105.279 15.992C104.809 16.44 104.201 16.664 103.455 16.664ZM101.407 35V19.128H105.503V35H101.407ZM116.338 35.384C114.93 35.384 113.693 35.16 112.626 34.712C111.559 34.2427 110.706 33.6027 110.066 32.792C109.426 31.9813 109.042 31.0427 108.914 29.976H113.042C113.17 30.5947 113.511 31.128 114.066 31.576C114.642 32.0027 115.378 32.216 116.274 32.216C117.17 32.216 117.821 32.0347 118.226 31.672C118.653 31.3093 118.866 30.8933 118.866 30.424C118.866 29.7413 118.567 29.2827 117.97 29.048C117.373 28.792 116.541 28.5467 115.474 28.312C114.791 28.1627 114.098 27.9813 113.394 27.768C112.69 27.5547 112.039 27.288 111.442 26.968C110.866 26.6267 110.397 26.2 110.034 25.688C109.671 25.1547 109.49 24.504 109.49 23.736C109.49 22.328 110.045 21.144 111.154 20.184C112.285 19.224 113.863 18.744 115.89 18.744C117.767 18.744 119.261 19.1813 120.37 20.056C121.501 20.9307 122.173 22.136 122.386 23.672H118.514C118.279 22.4987 117.394 21.912 115.858 21.912C115.09 21.912 114.493 22.0613 114.066 22.36C113.661 22.6587 113.458 23.032 113.458 23.48C113.458 23.9493 113.767 24.3227 114.386 24.6C115.005 24.8773 115.826 25.1333 116.85 25.368C117.959 25.624 118.973 25.912 119.89 26.232C120.829 26.5307 121.575 26.9893 122.13 27.608C122.685 28.2053 122.962 29.0693 122.962 30.2C122.983 31.1813 122.727 32.0667 122.194 32.856C121.661 33.6453 120.893 34.264 119.89 34.712C118.887 35.16 117.703 35.384 116.338 35.384Z" fill="white"/>
</svg>
