<svg width="116" height="48" viewBox="0 0 116 48" fill="none" xmlns="http://www.w3.org/2000/svg">
<rect x="20.15" y="19.1667" width="13.5529" height="13.5529" transform="rotate(-135 20.15 19.1667)" fill="#60A5FA"/>
<rect x="10.5668" y="28.7501" width="13.5529" height="13.5529" transform="rotate(-135 10.5668 28.7501)" fill="#F472B6"/>
<rect x="29.7335" y="47.9169" width="13.5529" height="13.5529" transform="rotate(-135 29.7335 47.9169)" fill="#FBBF24"/>
<rect x="10.5668" y="47.9169" width="13.5529" height="13.5529" transform="rotate(-135 10.5668 47.9169)" fill="#34D399"/>
<rect x="29.7335" y="28.7501" width="13.5529" height="13.5529" transform="rotate(-135 29.7335 28.7501)" fill="#F472B6"/>
<path d="M39.3169 38.3335L29.7335 28.7501L39.3169 19.1667V29.5487V38.3335Z" fill="#34D399"/>
<path d="M0.983398 19.1667L10.5668 28.7501L0.983398 38.3335V27.9515V19.1667Z" fill="#FBBF24"/>
<path d="M56.5589 35L64.7509 12.6H69.3589L77.5509 35H73.1989L71.4069 29.816H62.6709L60.8469 35H56.5589ZM63.7909 26.616H70.2869L67.0229 17.304L63.7909 26.616ZM85.8499 35C84.1859 35 82.8525 34.5947 81.8499 33.784C80.8472 32.9733 80.3459 31.5333 80.3459 29.464V22.552H77.6259V19.128H80.3459L80.8259 14.872H84.4419V19.128H88.7299V22.552H84.4419V29.496C84.4419 30.264 84.6019 30.7973 84.9219 31.096C85.2632 31.3733 85.8392 31.512 86.6499 31.512H88.6339V35H85.8499ZM94.4546 16.664C93.708 16.664 93.0893 16.44 92.5986 15.992C92.1293 15.544 91.8946 14.9787 91.8946 14.296C91.8946 13.6133 92.1293 13.0587 92.5986 12.632C93.0893 12.184 93.708 11.96 94.4546 11.96C95.2013 11.96 95.8093 12.184 96.2786 12.632C96.7693 13.0587 97.0146 13.6133 97.0146 14.296C97.0146 14.9787 96.7693 15.544 96.2786 15.992C95.8093 16.44 95.2013 16.664 94.4546 16.664ZM92.4066 35V19.128H96.5026V35H92.4066ZM107.338 35.384C105.93 35.384 104.693 35.16 103.626 34.712C102.559 34.2427 101.706 33.6027 101.066 32.792C100.426 31.9813 100.042 31.0427 99.9139 29.976H104.042C104.17 30.5947 104.511 31.128 105.066 31.576C105.642 32.0027 106.378 32.216 107.274 32.216C108.17 32.216 108.821 32.0347 109.226 31.672C109.653 31.3093 109.866 30.8933 109.866 30.424C109.866 29.7413 109.567 29.2827 108.97 29.048C108.373 28.792 107.541 28.5467 106.474 28.312C105.791 28.1627 105.098 27.9813 104.394 27.768C103.69 27.5547 103.039 27.288 102.442 26.968C101.866 26.6267 101.397 26.2 101.034 25.688C100.671 25.1547 100.49 24.504 100.49 23.736C100.49 22.328 101.045 21.144 102.154 20.184C103.285 19.224 104.863 18.744 106.89 18.744C108.767 18.744 110.261 19.1813 111.37 20.056C112.501 20.9307 113.173 22.136 113.386 23.672H109.514C109.279 22.4987 108.394 21.912 106.858 21.912C106.09 21.912 105.493 22.0613 105.066 22.36C104.661 22.6587 104.458 23.032 104.458 23.48C104.458 23.9493 104.767 24.3227 105.386 24.6C106.005 24.8773 106.826 25.1333 107.85 25.368C108.959 25.624 109.973 25.912 110.89 26.232C111.829 26.5307 112.575 26.9893 113.13 27.608C113.685 28.2053 113.962 29.0693 113.962 30.2C113.983 31.1813 113.727 32.0667 113.194 32.856C112.661 33.6453 111.893 34.264 110.89 34.712C109.887 35.16 108.703 35.384 107.338 35.384Z" fill="white"/>
</svg>
