<svg width="113" height="48" viewBox="0 0 113 48" fill="none" xmlns="http://www.w3.org/2000/svg">
<rect x="19.1501" y="19.1667" width="13.5529" height="13.5529" transform="rotate(-135 19.1501 19.1667)" fill="#0EA6E9"/>
<rect x="9.56674" y="28.7502" width="13.5529" height="13.5529" transform="rotate(-135 9.56674 28.7502)" fill="#7B3AEC"/>
<rect x="28.7336" y="47.9169" width="13.5529" height="13.5529" transform="rotate(-135 28.7336 47.9169)" fill="#FBBF23"/>
<rect x="9.56674" y="47.9169" width="13.5529" height="13.5529" transform="rotate(-135 9.56674 47.9169)" fill="#17A34A"/>
<rect x="28.7336" y="28.7502" width="13.5529" height="13.5529" transform="rotate(-135 28.7336 28.7502)" fill="#EB4899"/>
<path d="M38.3169 38.3335L28.7335 28.7501L38.3169 19.1667V29.5487V38.3335Z" fill="#17A34A"/>
<path d="M-0.0166016 19.1667L9.56678 28.7501L-0.0166016 38.3335V27.9515V19.1667Z" fill="#FBBF23"/>
<path d="M55.5589 35L63.7509 12.6H68.3589L76.5509 35H72.1989L70.4069 29.816H61.6709L59.8469 35H55.5589ZM62.7909 26.616H69.2869L66.0229 17.304L62.7909 26.616ZM84.8499 35C83.1859 35 81.8526 34.5947 80.8499 33.784C79.8473 32.9733 79.3459 31.5333 79.3459 29.464V22.552H76.6259V19.128H79.3459L79.8259 14.872H83.4419V19.128H87.7299V22.552H83.4419V29.496C83.4419 30.264 83.6019 30.7973 83.9219 31.096C84.2633 31.3733 84.8393 31.512 85.6499 31.512H87.6339V35H84.8499ZM93.4547 16.664C92.708 16.664 92.0893 16.44 91.5987 15.992C91.1293 15.544 90.8947 14.9787 90.8947 14.296C90.8947 13.6133 91.1293 13.0587 91.5987 12.632C92.0893 12.184 92.708 11.96 93.4547 11.96C94.2013 11.96 94.8093 12.184 95.2787 12.632C95.7693 13.0587 96.0147 13.6133 96.0147 14.296C96.0147 14.9787 95.7693 15.544 95.2787 15.992C94.8093 16.44 94.2013 16.664 93.4547 16.664ZM91.4067 35V19.128H95.5027V35H91.4067ZM106.338 35.384C104.93 35.384 103.693 35.16 102.626 34.712C101.559 34.2427 100.706 33.6027 100.066 32.792C99.4259 31.9813 99.0419 31.0427 98.9139 29.976H103.042C103.17 30.5947 103.511 31.128 104.066 31.576C104.642 32.0027 105.378 32.216 106.274 32.216C107.17 32.216 107.821 32.0347 108.226 31.672C108.653 31.3093 108.866 30.8933 108.866 30.424C108.866 29.7413 108.567 29.2827 107.97 29.048C107.373 28.792 106.541 28.5467 105.474 28.312C104.791 28.1627 104.098 27.9813 103.394 27.768C102.69 27.5547 102.039 27.288 101.442 26.968C100.866 26.6267 100.397 26.2 100.034 25.688C99.6713 25.1547 99.4899 24.504 99.4899 23.736C99.4899 22.328 100.045 21.144 101.154 20.184C102.285 19.224 103.863 18.744 105.89 18.744C107.767 18.744 109.261 19.1813 110.37 20.056C111.501 20.9307 112.173 22.136 112.386 23.672H108.514C108.279 22.4987 107.394 21.912 105.858 21.912C105.09 21.912 104.493 22.0613 104.066 22.36C103.661 22.6587 103.458 23.032 103.458 23.48C103.458 23.9493 103.767 24.3227 104.386 24.6C105.005 24.8773 105.826 25.1333 106.85 25.368C107.959 25.624 108.973 25.912 109.89 26.232C110.829 26.5307 111.575 26.9893 112.13 27.608C112.685 28.2053 112.962 29.0693 112.962 30.2C112.983 31.1813 112.727 32.0667 112.194 32.856C111.661 33.6453 110.893 34.264 109.89 34.712C108.887 35.16 107.703 35.384 106.338 35.384Z" fill="#111827"/>
</svg>
