<svg width="158" height="158" viewBox="0 0 158 158" fill="none" xmlns="http://www.w3.org/2000/svg">
<path d="M92.1667 65.8337H123.53C125.774 65.8338 127.981 66.4074 129.941 67.5001C131.901 68.5928 133.549 70.1683 134.729 72.0771C135.909 73.9859 136.581 76.1646 136.683 78.4063C136.784 80.6481 136.31 82.8785 135.307 84.8859L112.266 130.969C111.172 133.158 109.49 134.999 107.408 136.285C105.327 137.571 102.928 138.252 100.481 138.25H74.0362C72.9631 138.25 71.89 138.119 70.8433 137.855L46.0833 131.667M92.1667 65.8337V32.917C92.1667 29.425 90.7795 26.076 88.3103 23.6068C85.841 21.1376 82.492 19.7504 79 19.7504H78.3746C75.0829 19.7504 72.4167 22.4166 72.4167 25.7083C72.4167 30.4088 71.0276 35.004 68.414 38.9145L46.0833 72.417V131.667M92.1667 65.8337H79M46.0833 131.667H32.9167C29.4247 131.667 26.0757 130.28 23.6064 127.811C21.1372 125.341 19.75 121.992 19.75 118.5V79.0004C19.75 75.5084 21.1372 72.1594 23.6064 69.6901C26.0757 67.2209 29.4247 65.8337 32.9167 65.8337H49.375" stroke="url(#paint0_linear)" stroke-opacity="0.15" stroke-width="13.25" stroke-linecap="round" stroke-linejoin="round"/>
<defs>
<linearGradient id="paint0_linear" x1="78.223" y1="-24.3456" x2="78.223" y2="129.68" gradientUnits="userSpaceOnUse">
<stop stop-color="#17A34A"/>
<stop offset="1" stop-color="#17A34A" stop-opacity="0"/>
</linearGradient>
</defs>
</svg>
