<svg width="159" height="159" viewBox="0 0 159 159" fill="none" xmlns="http://www.w3.org/2000/svg">
<path d="M33.9266 117.952C47.8286 110.094 63.531 105.976 79.5 106C96.0625 106 111.611 110.339 125.073 117.952M99.375 66.25C99.375 71.5212 97.281 76.5765 93.5537 80.3037C89.8265 84.031 84.7712 86.125 79.5 86.125C74.2288 86.125 69.1735 84.031 65.4463 80.3037C61.719 76.5765 59.625 71.5212 59.625 66.25C59.625 60.9788 61.719 55.9235 65.4463 52.1963C69.1735 48.469 74.2288 46.375 79.5 46.375C84.7712 46.375 89.8265 48.469 93.5537 52.1963C97.281 55.9235 99.375 60.9788 99.375 66.25ZM139.125 79.5C139.125 87.3301 137.583 95.0835 134.586 102.317C131.59 109.552 127.198 116.125 121.661 121.661C116.125 127.198 109.552 131.59 102.317 134.586C95.0835 137.583 87.3301 139.125 79.5 139.125C71.6699 139.125 63.9165 137.583 56.6825 134.586C49.4485 131.59 42.8755 127.198 37.3388 121.661C31.8021 116.125 27.4101 109.552 24.4137 102.317C21.4172 95.0835 19.875 87.3301 19.875 79.5C19.875 63.6865 26.1569 48.5206 37.3388 37.3388C48.5206 26.1569 63.6865 19.875 79.5 19.875C95.3135 19.875 110.479 26.1569 121.661 37.3388C132.843 48.5206 139.125 63.6865 139.125 79.5Z" stroke="url(#paint0_linear)" stroke-opacity="0.15" stroke-width="13.25" stroke-linecap="round" stroke-linejoin="round"/>
<defs>
<linearGradient id="paint0_linear" x1="79.5" y1="-24.5" x2="79.5" y2="130.5" gradientUnits="userSpaceOnUse">
<stop stop-color="#17A34A"/>
<stop offset="1" stop-color="#17A34A" stop-opacity="0"/>
</linearGradient>
</defs>
</svg>
