<svg width="69" height="37" viewBox="0 0 69 37" fill="none" xmlns="http://www.w3.org/2000/svg">
<path fill-rule="evenodd" clip-rule="evenodd" d="M11.5499 22.7792C11.0019 22.7792 10.5729 23.1625 10.5729 23.7218C10.5729 24.2815 11.0041 24.6627 11.5499 24.6627C12.0952 24.6627 12.5268 24.279 12.5268 23.7218C12.5268 23.1625 12.0974 22.7792 11.5499 22.7792ZM11.5499 24.3931C11.1592 24.3931 10.8694 24.1077 10.8694 23.7218C10.8694 23.3363 11.157 23.0487 11.5499 23.0487C11.938 23.0487 12.23 23.3407 12.23 23.7218C12.23 24.1007 11.9354 24.3931 11.5499 24.3931ZM21.0557 19.482H16.3L16.8406 11.216L13.7523 19.482H9.33606L16.3431 0.79834H21.0421L20.4997 9.1778L23.6466 0.79834H28.0632L21.0557 19.482ZM21.6295 19.482L28.6361 0.79834H33.0523L26.0456 19.482H21.6295Z" fill="#CBD5E1"/>
<path fill-rule="evenodd" clip-rule="evenodd" d="M8.8268 13.0418C2.65561 20.289 -3.16575 29.9318 1.97623 34.3723C6.95876 38.6755 13.1867 36.1277 17.4331 34.429C21.6795 32.7304 68.6154 12.3481 68.6154 12.3481C69.0683 12.1216 68.9836 11.8384 68.4172 11.9798C68.1889 12.0369 17.32 25.8227 17.32 25.8227C10.865 27.6348 3.50475 23.6855 8.8268 13.0418Z" fill="#CBD5E1"/>
<path fill-rule="evenodd" clip-rule="evenodd" d="M11.7162 23.7881C11.8532 23.7814 11.9604 23.7107 11.9604 23.5211C11.9604 23.2766 11.8006 23.2151 11.5336 23.2151H11.1499V24.2288H11.4058V23.7973H11.4489L11.682 24.2288H11.9762L11.7162 23.7881ZM11.552 23.6238H11.4062V23.3885H11.5292C11.6047 23.3885 11.6912 23.3974 11.6912 23.4957C11.6912 23.601 11.6411 23.6238 11.552 23.6238ZM55.943 0.741211C55.3951 0.741211 54.9661 1.12491 54.9661 1.68388C54.9661 2.24322 55.3976 2.62434 55.943 2.62434C56.4883 2.62434 56.9199 2.24065 56.9199 1.68388C56.9203 1.12491 56.4913 0.741211 55.943 0.741211ZM55.943 2.35554C55.5523 2.35554 55.2625 2.07016 55.2625 1.68425C55.2625 1.29871 55.5501 1.01112 55.943 1.01112C56.3311 1.01112 56.6235 1.30313 56.6235 1.68425C56.6235 2.06316 56.3289 2.35554 55.943 2.35554Z" fill="#CBD5E1"/>
<path fill-rule="evenodd" clip-rule="evenodd" d="M56.1098 1.75022C56.2468 1.74359 56.3544 1.67289 56.3544 1.48325C56.3544 1.23874 56.1942 1.17725 55.9276 1.17725H55.5439V2.19062H55.7994V1.75942H55.8429L56.0756 2.19062H56.3702L56.1098 1.75022ZM55.9452 1.58599H55.7994V1.35069H55.9228C55.9979 1.35069 56.0848 1.35989 56.0848 1.45821C56.0848 1.56316 56.0344 1.58599 55.9452 1.58599ZM53.0333 3.91247L54.2201 0.79834H40.745L36.1182 6.40355L38.2543 0.79834H33.7814L26.8307 19.482H31.2469L34.2145 11.6689L34.4177 19.482L47.9683 19.4526L49.2582 15.8586H44.1062L45.799 11.3294H50.0451L51.3516 7.84739H47.1055L48.5611 3.91247H53.0333ZM38.7989 18.2363L38.5158 8.49842L45.1929 1.16731L38.7989 18.2363Z" fill="#CBD5E1"/>
</svg>
